# Blender 3.3.1
# www.blender.org
mtllib S2_rescaled.mtl
o Untitled
v -0.079058 -0.074208 -0.006175
v -0.079058 -0.074208 -0.006175
v -0.073925 -0.054878 -0.006175
v -0.079146 -0.035571 -0.006175
v -0.079146 -0.035571 -0.006175
v -0.074013 -0.016241 -0.006175
v -0.079233 0.003066 -0.006175
v -0.079233 0.003066 -0.006175
v -0.074100 0.022396 -0.006175
v -0.079321 0.041703 -0.006175
v -0.079321 0.041703 -0.006175
v -0.074188 0.061033 -0.006175
v -0.091513 0.062840 0.003652
v -0.059728 -0.079341 -0.006175
v -0.066827 -0.067109 0.007967
v -0.073925 -0.054878 -0.006175
v -0.059815 -0.040704 -0.006175
v -0.066914 -0.028472 0.007967
v -0.074013 -0.016241 -0.006175
v -0.059903 -0.002067 -0.006175
v -0.067002 0.010165 0.007967
v -0.074100 0.022396 -0.006175
v -0.059990 0.036570 -0.006175
v -0.067089 0.048802 0.007967
v -0.074188 0.061033 -0.006175
v -0.074569 0.059596 0.013770
v -0.059728 -0.079341 -0.006175
v -0.054595 -0.060010 -0.006175
v -0.054595 -0.060010 -0.006175
v -0.059815 -0.040704 -0.006175
v -0.054683 -0.021374 -0.006175
v -0.054683 -0.021374 -0.006175
v -0.059903 -0.002067 -0.006175
v -0.054770 0.017263 -0.006175
v -0.054770 0.017263 -0.006175
v -0.059990 0.036570 -0.006175
v -0.054858 0.055900 -0.006175
v -0.054858 0.055900 -0.006175
v -0.054664 0.061543 0.013752
v -0.040421 -0.074121 -0.006175
v -0.040421 -0.074121 -0.006175
v -0.035288 -0.054790 -0.006175
v -0.040509 -0.035484 -0.006175
v -0.040509 -0.035484 -0.006175
v -0.035376 -0.016153 -0.006175
v -0.040596 0.003153 -0.006175
v -0.040596 0.003153 -0.006175
v -0.035463 0.022484 -0.006175
v -0.040684 0.041790 -0.006175
v -0.040684 0.041790 -0.006175
v -0.035551 0.061120 -0.006175
v -0.039909 0.074423 0.008499
v -0.021091 -0.079253 -0.006175
v -0.028190 -0.067022 0.007967
v -0.035288 -0.054790 -0.006175
v -0.021178 -0.040616 -0.006175
v -0.028277 -0.028385 0.007967
v -0.035376 -0.016153 -0.006175
v -0.021266 -0.001979 -0.006175
v -0.028365 0.010252 0.007967
v -0.035463 0.022484 -0.006175
v -0.021353 0.036658 -0.006175
v -0.028452 0.048889 0.007967
v -0.035551 0.061120 -0.006175
v -0.036045 0.055586 0.013404
v -0.021091 -0.079253 -0.006175
v -0.015958 -0.059923 -0.006175
v -0.015958 -0.059923 -0.006175
v -0.021178 -0.040616 -0.006175
v -0.016046 -0.021286 -0.006175
v -0.016046 -0.021286 -0.006175
v -0.021266 -0.001979 -0.006175
v -0.016133 0.017351 -0.006175
v -0.016133 0.017351 -0.006175
v -0.021353 0.036658 -0.006175
v -0.016221 0.055988 -0.006175
v -0.016221 0.055988 -0.006175
v -0.016263 0.059952 0.013929
v -0.001784 -0.074033 -0.006175
v -0.001784 -0.074033 -0.006175
v 0.003348 -0.054703 -0.006175
v -0.001872 -0.035396 -0.006175
v -0.001872 -0.035396 -0.006175
v 0.003261 -0.016066 -0.006175
v -0.001959 0.003241 -0.006175
v -0.001959 0.003241 -0.006175
v 0.003173 0.022571 -0.006175
v -0.002047 0.041878 -0.006175
v -0.002047 0.041878 -0.006175
v 0.003086 0.061208 -0.006175
v -0.000797 0.072556 0.010200
v 0.017546 -0.079166 -0.006175
v 0.010447 -0.066934 0.007967
v 0.003348 -0.054703 -0.006175
v 0.017459 -0.040529 -0.006175
v 0.010360 -0.028297 0.007967
v 0.003261 -0.016066 -0.006175
v 0.017371 -0.001892 -0.006175
v 0.010272 0.010340 0.007967
v 0.003173 0.022571 -0.006175
v 0.017284 0.036745 -0.006175
v 0.010185 0.048977 0.007967
v 0.003086 0.061208 -0.006175
v 0.002046 0.053044 0.012491
v 0.017546 -0.079166 -0.006175
v 0.022679 -0.059835 -0.006175
v 0.022679 -0.059835 -0.006175
v 0.017459 -0.040529 -0.006175
v 0.022591 -0.021199 -0.006175
v 0.022591 -0.021199 -0.006175
v 0.017371 -0.001892 -0.006175
v 0.022504 0.017438 -0.006175
v 0.022504 0.017438 -0.006175
v 0.017284 0.036745 -0.006175
v 0.022416 0.056075 -0.006175
v 0.022416 0.056075 -0.006175
v 0.022173 0.055548 0.013740
v 0.036853 -0.073946 -0.006175
v 0.036853 -0.073946 -0.006175
v 0.041985 -0.054615 -0.006175
v 0.036765 -0.035309 -0.006175
v 0.036765 -0.035309 -0.006175
v 0.041898 -0.015978 -0.006175
v 0.036678 0.003328 -0.006175
v 0.036678 0.003328 -0.006175
v 0.041810 0.022659 -0.006175
v 0.036590 0.041965 -0.006175
v 0.036590 0.041965 -0.006175
v 0.041723 0.061295 -0.006175
v 0.041568 0.060795 0.013912
v 0.056183 -0.079078 -0.006175
v 0.049084 -0.066847 0.007967
v 0.041985 -0.054615 -0.006175
v 0.056095 -0.040441 -0.006175
v 0.048997 -0.028210 0.007967
v 0.041898 -0.015978 -0.006175
v 0.056008 -0.001804 -0.006175
v 0.048909 0.010427 0.007967
v 0.041810 0.022659 -0.006175
v 0.055920 0.036833 -0.006175
v 0.048822 0.049064 0.007967
v 0.041723 0.061295 -0.006175
v 0.046094 0.077751 0.004319
v 0.056183 -0.079078 -0.006175
v 0.061316 -0.059748 -0.006175
v 0.061316 -0.059748 -0.006175
v 0.056095 -0.040441 -0.006175
v 0.061228 -0.021111 -0.006175
v 0.061228 -0.021111 -0.006175
v 0.056008 -0.001804 -0.006175
v 0.061141 0.017526 -0.006175
v 0.061141 0.017526 -0.006175
v 0.055920 0.036833 -0.006175
v 0.061053 0.056163 -0.006175
v 0.061053 0.056163 -0.006175
v 0.065482 0.072853 0.003919
v 0.072654 -0.083451 0.004294
v 0.077768 -0.064116 0.004325
v 0.060807 -0.059596 0.013912
v 0.055567 -0.040198 0.013740
v 0.053063 -0.020071 0.012491
v 0.072576 -0.017229 0.010201
v 0.059971 -0.001762 0.013929
v 0.055605 0.018020 0.013404
v 0.074443 0.021884 0.008500
v 0.061563 0.036639 0.013752
v 0.059616 0.056544 0.013770
v 0.074127 0.045944 0.004991
v 0.078838 0.062713 0.014820
vn -0.0000 -0.0000 1.0000
vn 0.2095 0.7892 -0.5774
vn 0.7892 -0.2095 -0.5774
vn -0.0000 -0.0000 -1.0000
vn 0.1448 0.9867 0.0739
vn -0.7892 0.2095 -0.5774
vn -0.2095 -0.7892 -0.5774
vn -0.2095 -0.7892 -0.5773
vn 0.2559 0.9638 0.0743
vn -0.0940 0.9581 -0.2704
vn -0.2519 0.9318 -0.2614
vn -0.6312 0.4721 -0.6154
vn 0.9712 0.2219 0.0872
vn 0.2471 0.9308 0.2694
vn -0.2068 0.9598 -0.1897
vn -0.2564 0.9482 -0.1875
vn -0.6046 0.5804 -0.5456
vn 0.2095 0.7892 -0.5773
vn 0.9798 0.1572 0.1234
vn 0.2352 0.8856 0.4005
vn -0.1249 0.9919 0.0248
vn -0.2609 0.9651 0.0224
vn -0.2613 0.9650 0.0220
vn 0.7892 -0.2095 -0.5773
vn -0.9663 0.2574 -0.0010
vn 0.1346 0.5071 -0.8513
vn 0.1069 0.4936 -0.8631
vn 0.5059 -0.1343 -0.8521
vn 0.5079 -0.1330 -0.8511
vn 0.2571 0.9664 -0.0008
vn 0.9651 0.2609 0.0225
vn 0.9651 0.2609 0.0224
vn 0.9661 -0.2565 0.0288
vn 0.9103 0.1375 0.3905
vn 0.1572 -0.9798 0.1234
vn 0.7794 0.2107 -0.5900
vn 0.7486 0.6460 -0.1489
vn 0.9495 -0.2521 -0.1866
vn 0.9413 0.2146 0.2607
vn 0.2219 -0.9712 0.0873
vn 0.6990 0.1890 -0.6897
vn 0.7042 0.6833 -0.1928
vn 0.9316 -0.2474 -0.2662
vn 0.9928 0.0970 0.0697
vn -0.6007 -0.7990 -0.0280
vn 0.7237 0.2063 -0.6586
vn 0.7061 0.1998 -0.6793
s 0
f 1//1 2//1 14//1
f 2//2 15//2 14//2
f 2//3 3//3 15//3
f 3//1 16//1 15//1
f 3//1 4//1 16//1
f 4//4 17//4 16//4
f 4//1 5//1 17//1
f 5//2 18//2 17//2
f 5//3 6//3 18//3
f 6//1 19//1 18//1
f 6//1 7//1 19//1
f 7//4 20//4 19//4
f 7//1 8//1 20//1
f 8//2 21//2 20//2
f 8//3 9//3 21//3
f 9//1 22//1 21//1
f 9//1 10//1 22//1
f 10//4 23//4 22//4
f 10//1 11//1 23//1
f 11//2 24//2 23//2
f 11//3 12//3 24//3
f 12//1 25//1 24//1
f 12//1 13//1 25//1
f 13//5 26//5 25//5
f 14//1 15//1 27//1
f 15//6 28//6 27//6
f 15//7 16//7 28//7
f 16//1 29//1 28//1
f 16//4 17//4 29//4
f 17//1 30//1 29//1
f 17//1 18//1 30//1
f 18//6 31//6 30//6
f 18//7 19//7 31//7
f 19//1 32//1 31//1
f 19//4 20//4 32//4
f 20//1 33//1 32//1
f 20//1 21//1 33//1
f 21//6 34//6 33//6
f 21//7 22//7 34//7
f 22//1 35//1 34//1
f 22//4 23//4 35//4
f 23//1 36//1 35//1
f 23//1 24//1 36//1
f 24//6 37//6 36//6
f 24//8 25//8 37//8
f 25//1 38//1 37//1
f 25//9 26//9 38//9
f 26//10 39//10 38//10
f 27//4 28//4 40//4
f 28//1 41//1 40//1
f 28//1 29//1 41//1
f 29//4 42//4 41//4
f 29//4 30//4 42//4
f 30//4 43//4 42//4
f 30//4 31//4 43//4
f 31//1 44//1 43//1
f 31//1 32//1 44//1
f 32//4 45//4 44//4
f 32//4 33//4 45//4
f 33//4 46//4 45//4
f 33//4 34//4 46//4
f 34//1 47//1 46//1
f 34//1 35//1 47//1
f 35//4 48//4 47//4
f 35//4 36//4 48//4
f 36//4 49//4 48//4
f 36//4 37//4 49//4
f 37//1 50//1 49//1
f 37//1 38//1 50//1
f 38//4 51//4 50//4
f 38//11 39//11 51//11
f 39//12 52//12 51//12
f 40//1 41//1 53//1
f 41//2 54//2 53//2
f 41//3 42//3 54//3
f 42//1 55//1 54//1
f 42//1 43//1 55//1
f 43//4 56//4 55//4
f 43//1 44//1 56//1
f 44//2 57//2 56//2
f 44//3 45//3 57//3
f 45//1 58//1 57//1
f 45//1 46//1 58//1
f 46//4 59//4 58//4
f 46//1 47//1 59//1
f 47//2 60//2 59//2
f 47//3 48//3 60//3
f 48//1 61//1 60//1
f 48//1 49//1 61//1
f 49//4 62//4 61//4
f 49//1 50//1 62//1
f 50//2 63//2 62//2
f 50//3 51//3 63//3
f 51//1 64//1 63//1
f 51//1 52//1 64//1
f 52//13 65//13 64//13
f 53//1 54//1 66//1
f 54//6 67//6 66//6
f 54//7 55//7 67//7
f 55//1 68//1 67//1
f 55//4 56//4 68//4
f 56//1 69//1 68//1
f 56//1 57//1 69//1
f 57//6 70//6 69//6
f 57//7 58//7 70//7
f 58//1 71//1 70//1
f 58//4 59//4 71//4
f 59//1 72//1 71//1
f 59//1 60//1 72//1
f 60//6 73//6 72//6
f 60//7 61//7 73//7
f 61//1 74//1 73//1
f 61//4 62//4 74//4
f 62//1 75//1 74//1
f 62//1 63//1 75//1
f 63//6 76//6 75//6
f 63//7 64//7 76//7
f 64//1 77//1 76//1
f 64//14 65//14 77//14
f 65//15 78//15 77//15
f 66//4 67//4 79//4
f 67//1 80//1 79//1
f 67//1 68//1 80//1
f 68//4 81//4 80//4
f 68//4 69//4 81//4
f 69//4 82//4 81//4
f 69//4 70//4 82//4
f 70//1 83//1 82//1
f 70//1 71//1 83//1
f 71//4 84//4 83//4
f 71//4 72//4 84//4
f 72//4 85//4 84//4
f 72//4 73//4 85//4
f 73//1 86//1 85//1
f 73//1 74//1 86//1
f 74//4 87//4 86//4
f 74//4 75//4 87//4
f 75//4 88//4 87//4
f 75//4 76//4 88//4
f 76//1 89//1 88//1
f 76//1 77//1 89//1
f 77//4 90//4 89//4
f 77//16 78//16 90//16
f 78//17 91//17 90//17
f 79//1 80//1 92//1
f 80//18 93//18 92//18
f 80//3 81//3 93//3
f 81//1 94//1 93//1
f 81//1 82//1 94//1
f 82//4 95//4 94//4
f 82//1 83//1 95//1
f 83//2 96//2 95//2
f 83//3 84//3 96//3
f 84//1 97//1 96//1
f 84//1 85//1 97//1
f 85//4 98//4 97//4
f 85//1 86//1 98//1
f 86//2 99//2 98//2
f 86//3 87//3 99//3
f 87//1 100//1 99//1
f 87//1 88//1 100//1
f 88//4 101//4 100//4
f 88//1 89//1 101//1
f 89//2 102//2 101//2
f 89//3 90//3 102//3
f 90//1 103//1 102//1
f 90//1 91//1 103//1
f 91//19 104//19 103//19
f 92//1 93//1 105//1
f 93//6 106//6 105//6
f 93//7 94//7 106//7
f 94//1 107//1 106//1
f 94//4 95//4 107//4
f 95//1 108//1 107//1
f 95//1 96//1 108//1
f 96//6 109//6 108//6
f 96//7 97//7 109//7
f 97//1 110//1 109//1
f 97//4 98//4 110//4
f 98//1 111//1 110//1
f 98//1 99//1 111//1
f 99//6 112//6 111//6
f 99//7 100//7 112//7
f 100//1 113//1 112//1
f 100//4 101//4 113//4
f 101//1 114//1 113//1
f 101//1 102//1 114//1
f 102//6 115//6 114//6
f 102//8 103//8 115//8
f 103//1 116//1 115//1
f 103//20 104//20 116//20
f 104//21 117//21 116//21
f 105//4 106//4 118//4
f 106//1 119//1 118//1
f 106//1 107//1 119//1
f 107//4 120//4 119//4
f 107//4 108//4 120//4
f 108//4 121//4 120//4
f 108//4 109//4 121//4
f 109//1 122//1 121//1
f 109//1 110//1 122//1
f 110//4 123//4 122//4
f 110//4 111//4 123//4
f 111//4 124//4 123//4
f 111//4 112//4 124//4
f 112//1 125//1 124//1
f 112//1 113//1 125//1
f 113//4 126//4 125//4
f 113//4 114//4 126//4
f 114//4 127//4 126//4
f 114//4 115//4 127//4
f 115//1 128//1 127//1
f 115//1 116//1 128//1
f 116//4 129//4 128//4
f 116//22 117//22 129//22
f 117//23 130//23 129//23
f 118//1 119//1 131//1
f 119//2 132//2 131//2
f 119//24 120//24 132//24
f 120//1 133//1 132//1
f 120//1 121//1 133//1
f 121//4 134//4 133//4
f 121//1 122//1 134//1
f 122//2 135//2 134//2
f 122//3 123//3 135//3
f 123//1 136//1 135//1
f 123//1 124//1 136//1
f 124//4 137//4 136//4
f 124//1 125//1 137//1
f 125//2 138//2 137//2
f 125//3 126//3 138//3
f 126//1 139//1 138//1
f 126//1 127//1 139//1
f 127//4 140//4 139//4
f 127//1 128//1 140//1
f 128//18 141//18 140//18
f 128//3 129//3 141//3
f 129//1 142//1 141//1
f 129//1 130//1 142//1
f 130//25 143//25 142//25
f 131//1 132//1 144//1
f 132//6 145//6 144//6
f 132//8 133//8 145//8
f 133//1 146//1 145//1
f 133//4 134//4 146//4
f 134//1 147//1 146//1
f 134//1 135//1 147//1
f 135//6 148//6 147//6
f 135//7 136//7 148//7
f 136//1 149//1 148//1
f 136//4 137//4 149//4
f 137//1 150//1 149//1
f 137//1 138//1 150//1
f 138//6 151//6 150//6
f 138//7 139//7 151//7
f 139//1 152//1 151//1
f 139//4 140//4 152//4
f 140//1 153//1 152//1
f 140//1 141//1 153//1
f 141//6 154//6 153//6
f 141//7 142//7 154//7
f 142//1 155//1 154//1
f 142//26 143//26 155//26
f 143//27 156//27 155//27
f 144//28 145//28 157//28
f 145//29 158//29 157//29
f 145//1 146//1 158//1
f 146//30 159//30 158//30
f 146//31 147//31 159//31
f 147//32 160//32 159//32
f 147//33 148//33 160//33
f 148//34 161//34 160//34
f 148//1 149//1 161//1
f 149//35 162//35 161//35
f 149//36 150//36 162//36
f 150//37 163//37 162//37
f 150//38 151//38 163//38
f 151//39 164//39 163//39
f 151//1 152//1 164//1
f 152//40 165//40 164//40
f 152//41 153//41 165//41
f 153//42 166//42 165//42
f 153//43 154//43 166//43
f 154//44 167//44 166//44
f 154//1 155//1 167//1
f 155//45 168//45 167//45
f 155//46 156//46 168//46
f 156//47 169//47 168//47
