# Blender 3.3.1
# www.blender.org
o Untitled
v -0.067885 -0.070948 0.010823
v -0.063144 -0.075690 -0.008019
v -0.068980 -0.056834 0.005208
v -0.063144 -0.047405 -0.008019
v -0.068981 -0.028549 0.005208
v -0.063144 -0.019121 -0.008019
v -0.068982 -0.000265 0.005207
v -0.063144 0.009163 -0.008019
v -0.068983 0.028019 0.005206
v -0.063144 0.037447 -0.008019
v -0.068983 0.056303 0.005206
v -0.063144 0.065732 -0.008019
v -0.074492 0.077083 0.003915
v -0.063144 -0.075690 -0.008019
v -0.049002 -0.061547 -0.008019
v -0.063144 -0.047405 -0.008019
v -0.049002 -0.033263 -0.008019
v -0.063144 -0.019121 -0.008019
v -0.049002 -0.004979 -0.008019
v -0.063144 0.009163 -0.008019
v -0.049002 0.023305 -0.008019
v -0.063144 0.037447 -0.008019
v -0.049002 0.051590 -0.008019
v -0.063144 0.065732 -0.008019
v -0.049002 0.079874 -0.008019
v -0.060157 0.091027 0.004277
v -0.048448 -0.085613 0.003097
v -0.048680 -0.065671 0.010663
v -0.049002 -0.061547 -0.008019
v -0.048896 -0.041388 0.008630
v -0.049002 -0.033263 -0.008019
v -0.048896 -0.013104 0.008630
v -0.049002 -0.004979 -0.008019
v -0.048896 0.015180 0.008630
v -0.049002 0.023305 -0.008019
v -0.048896 0.043465 0.008630
v -0.049002 0.051590 -0.008019
v -0.049703 0.065534 0.010666
v -0.049002 0.079874 -0.008019
v -0.031113 -0.080887 -0.008019
v -0.030629 -0.065653 0.010725
v -0.031113 -0.052603 -0.008019
v -0.031218 -0.044478 0.008630
v -0.031113 -0.024319 -0.008019
v -0.031218 -0.016194 0.008630
v -0.031113 0.003965 -0.008019
v -0.031218 0.012090 0.008630
v -0.031113 0.032250 -0.008019
v -0.031218 0.040375 0.008630
v -0.031113 0.060534 -0.008019
v -0.031532 0.064713 0.010636
v -0.031505 0.084757 0.002913
v -0.019538 -0.090420 0.006176
v -0.031113 -0.080887 -0.008019
v -0.016971 -0.066745 -0.008019
v -0.031113 -0.052603 -0.008019
v -0.016971 -0.038461 -0.008019
v -0.031113 -0.024319 -0.008019
v -0.016971 -0.010177 -0.008019
v -0.031113 0.003965 -0.008019
v -0.016971 0.018107 -0.008019
v -0.031113 0.032250 -0.008019
v -0.016971 0.046392 -0.008019
v -0.031113 0.060534 -0.008019
v -0.016971 0.074676 -0.008019
v -0.017140 -0.070671 0.012655
v -0.016971 -0.066745 -0.008019
v -0.016866 -0.058620 0.008630
v -0.016971 -0.038461 -0.008019
v -0.016866 -0.030336 0.008630
v -0.016971 -0.010177 -0.008019
v -0.016866 -0.002052 0.008630
v -0.016971 0.018107 -0.008019
v -0.016866 0.026232 0.008630
v -0.016971 0.046392 -0.008019
v -0.016866 0.054517 0.008630
v -0.016971 0.074676 -0.008019
v -0.017619 0.075567 0.011659
v 0.001565 -0.076581 0.011658
v 0.000918 -0.075690 -0.008019
v 0.000813 -0.055530 0.008630
v 0.000918 -0.047405 -0.008019
v 0.000813 -0.027246 0.008630
v 0.000918 -0.019121 -0.008019
v 0.000813 0.001038 0.008630
v 0.000918 0.009163 -0.008019
v 0.000813 0.029323 0.008630
v 0.000918 0.037447 -0.008019
v 0.000813 0.057607 0.008630
v 0.000918 0.065732 -0.008019
v 0.001086 0.069657 0.012655
v 0.000918 -0.075690 -0.008019
v 0.015060 -0.061547 -0.008019
v 0.000918 -0.047405 -0.008019
v 0.015060 -0.033263 -0.008019
v 0.000918 -0.019121 -0.008019
v 0.015060 -0.004979 -0.008019
v 0.000918 0.009163 -0.008019
v 0.015060 0.023305 -0.008019
v 0.000918 0.037447 -0.008019
v 0.015060 0.051590 -0.008019
v 0.000918 0.065732 -0.008019
v 0.015060 0.079874 -0.008019
v 0.003484 0.089407 0.006176
v 0.015453 -0.085770 0.002914
v 0.015478 -0.065726 0.010637
v 0.015060 -0.061547 -0.008019
v 0.015165 -0.041388 0.008630
v 0.015060 -0.033263 -0.008019
v 0.015165 -0.013104 0.008630
v 0.015060 -0.004979 -0.008019
v 0.015165 0.015180 0.008630
v 0.015060 0.023305 -0.008019
v 0.015165 0.043465 0.008630
v 0.015060 0.051590 -0.008019
v 0.014576 0.064640 0.010725
v 0.015060 0.079874 -0.008019
v 0.032948 -0.080887 -0.008019
v 0.033648 -0.066541 0.010666
v 0.032948 -0.052603 -0.008019
v 0.032843 -0.044478 0.008630
v 0.032948 -0.024319 -0.008019
v 0.032843 -0.016194 0.008630
v 0.032948 0.003965 -0.008019
v 0.032843 0.012090 0.008630
v 0.032948 0.032250 -0.008019
v 0.032843 0.040375 0.008630
v 0.032948 0.060534 -0.008019
v 0.032627 0.064658 0.010663
v 0.032395 0.084600 0.003097
v 0.044172 -0.092003 0.004291
v 0.032948 -0.080887 -0.008019
v 0.047091 -0.066745 -0.008019
v 0.032948 -0.052603 -0.008019
v 0.047091 -0.038461 -0.008019
v 0.032948 -0.024319 -0.008019
v 0.047091 -0.010177 -0.008019
v 0.032948 0.003965 -0.008019
v 0.047091 0.018107 -0.008019
v 0.032948 0.032250 -0.008019
v 0.047091 0.046392 -0.008019
v 0.032948 0.060534 -0.008019
v 0.047091 0.074676 -0.008019
v 0.056875 -0.076662 0.006379
v 0.047091 -0.066745 -0.008019
v 0.052825 -0.056814 0.005210
v 0.047091 -0.038461 -0.008019
v 0.052910 -0.028404 0.005120
v 0.047091 -0.010177 -0.008019
v 0.052794 -0.000129 0.005227
v 0.047091 0.018107 -0.008019
v 0.052918 0.028175 0.005115
v 0.047091 0.046392 -0.008019
v 0.052407 0.056080 0.005801
v 0.047091 0.074676 -0.008019
v 0.041338 0.080425 0.010256
v 0.072577 -0.078811 -0.005820
v 0.064811 -0.065163 -0.018206
v 0.070995 -0.053807 -0.002379
v 0.065284 -0.041076 -0.015905
v 0.071036 -0.026007 -0.003059
v 0.065367 -0.012498 -0.015844
v 0.070985 0.002362 -0.002737
v 0.065301 0.015507 -0.015904
v 0.071039 0.030579 -0.003087
v 0.065441 0.044427 -0.015550
v 0.070637 0.059616 -0.002791
v 0.066055 0.079075 -0.003416
v 0.060120 0.085910 0.014426
vn -0.0000 -0.0000 1.0000
vn -0.4270 0.4270 -0.7971
vn -0.5478 -0.5478 -0.6322
vn -0.5478 -0.5478 -0.6323
vn -0.4269 0.4269 -0.7971
vn -0.4269 0.4269 -0.7972
vn -0.5478 -0.5478 -0.6324
vn -0.4219 0.4219 -0.8025
vn -0.4185 0.4507 -0.7885
vn 0.3806 -0.3806 -0.8428
vn 0.9998 0.0168 -0.0135
vn 0.6999 0.6999 0.1424
vn -0.6999 -0.6999 -0.1424
vn -0.0000 -0.0000 -1.0000
vn 1.0000 -0.0000 -0.0063
vn 0.6693 0.6693 0.3224
vn -0.6693 -0.6693 -0.3224
vn 0.9993 -0.0000 0.0375
vn 0.8276 0.4299 0.3610
vn -0.8276 -0.4299 -0.3610
vn -0.5713 0.2853 -0.7696
vn 0.0014 0.7760 -0.6307
vn 0.0017 -0.9765 -0.2156
vn 0.3777 -0.7553 -0.5356
vn -0.3038 0.6076 -0.7338
vn 0.1553 0.8882 -0.4325
vn -0.1553 -0.8882 -0.4325
vn 0.3038 -0.6076 -0.7338
vn -0.3691 0.7382 -0.5647
vn 0.0437 0.9751 -0.2175
vn -0.0367 -0.7921 -0.6093
vn 0.5642 -0.2975 -0.7701
vn 0.8184 0.4354 -0.3750
vn -0.8184 -0.4354 0.3750
vn -0.9997 -0.0000 0.0258
vn 0.6693 0.6693 -0.3224
vn -0.6693 -0.6693 0.3224
vn -1.0000 -0.0000 -0.0063
vn 0.7000 0.7000 -0.1411
vn -0.7000 -0.7000 0.1411
vn -0.9998 -0.0067 -0.0209
vn -0.3761 0.3761 -0.8468
vn 0.8020 0.0960 -0.5895
vn 0.7013 -0.7013 -0.1274
vn 0.6675 0.6675 -0.3300
vn 0.5360 -0.5360 -0.6523
vn -0.3051 -0.9352 -0.1801
vn -0.4471 -0.8941 -0.0258
vn 0.4094 0.8189 -0.4022
vn -0.1106 0.6325 -0.7666
vn 0.1106 -0.6325 -0.7666
vn -0.4094 -0.8189 -0.4022
vn 0.4471 0.8941 -0.0258
vn 0.3051 0.9352 -0.1801
vn -0.5360 0.5360 -0.6523
vn -0.6675 -0.6675 -0.3300
vn -0.7013 0.7013 -0.1274
vn -0.8020 -0.0960 -0.5895
vn 0.3761 -0.3761 -0.8468
vn 0.9998 0.0068 -0.0209
vn 0.7000 0.7000 0.1411
vn -0.7000 -0.7000 -0.1411
vn 0.9997 -0.0000 0.0258
vn 0.8184 0.4354 0.3750
vn -0.8184 -0.4354 -0.3750
vn -0.5643 0.2974 -0.7701
vn 0.0365 0.7920 -0.6094
vn -0.0434 -0.9751 -0.2175
vn 0.3691 -0.7383 -0.5645
vn -0.3777 0.7553 -0.5356
vn -0.0017 0.9765 -0.2156
vn -0.0014 -0.7760 -0.6307
vn 0.5713 -0.2853 -0.7696
vn 0.8257 0.4321 -0.3627
vn -0.8257 -0.4321 0.3627
vn -0.9993 -0.0000 0.0374
vn 0.6999 0.6999 -0.1424
vn -0.6999 -0.6999 0.1424
vn -0.9998 -0.0168 -0.0135
vn -0.3806 0.3806 -0.8428
vn 0.5287 -0.3315 -0.7814
vn 0.5082 -0.5082 -0.6953
vn 0.5421 0.5421 -0.6420
vn 0.4337 -0.4337 -0.7898
vn 0.5376 0.5376 -0.6496
vn 0.4324 -0.4324 -0.7913
vn 0.5412 0.5412 -0.6436
vn 0.4357 -0.4357 -0.7876
vn 0.5373 0.5373 -0.6502
vn 0.4323 -0.4323 -0.7914
vn 0.5609 0.5609 -0.6090
vn 0.4475 -0.4475 -0.7743
vn -0.3791 -0.8621 -0.3362
vn -0.2914 -0.7285 -0.6200
vn -0.3406 0.8168 -0.4656
vn -0.3293 0.8234 -0.4621
vn -0.2153 -0.6144 -0.7590
vn -0.3504 -0.7513 -0.5593
vn -0.1284 0.8141 -0.5663
vn -0.3743 0.6802 -0.6303
vn -0.2542 -0.6177 -0.7443
vn -0.3492 -0.7172 -0.6030
vn -0.1364 0.8167 -0.5608
vn -0.3676 0.6895 -0.6241
vn -0.2425 -0.6186 -0.7473
vn -0.3555 -0.7337 -0.5790
vn -0.1291 0.8139 -0.5665
vn -0.3755 0.6792 -0.6306
vn -0.2547 -0.6178 -0.7439
vn -0.3335 -0.7016 -0.6297
vn -0.1302 0.8347 -0.5351
vn -0.4203 0.6636 -0.6188
vn -0.2318 -0.6221 -0.7479
vn 0.2308 0.0231 -0.9727
vn -0.1348 0.9323 -0.3357
vn -0.1733 0.8991 -0.4021
s 0
f 1//1 2//1 14//1
f 2//1 15//1 14//1
f 2//2 3//2 15//2
f 3//3 16//3 15//3
f 3//1 4//1 16//1
f 4//1 17//1 16//1
f 4//2 5//2 17//2
f 5//4 18//4 17//4
f 5//1 6//1 18//1
f 6//1 19//1 18//1
f 6//5 7//5 19//5
f 7//4 20//4 19//4
f 7//1 8//1 20//1
f 8//1 21//1 20//1
f 8//6 9//6 21//6
f 9//7 22//7 21//7
f 9//1 10//1 22//1
f 10//1 23//1 22//1
f 10//6 11//6 23//6
f 11//7 24//7 23//7
f 11//1 12//1 24//1
f 12//1 25//1 24//1
f 12//8 13//8 25//8
f 13//9 26//9 25//9
f 14//10 15//10 27//10
f 15//11 28//11 27//11
f 15//12 16//12 28//12
f 16//13 29//13 28//13
f 16//14 17//14 29//14
f 17//15 30//15 29//15
f 17//16 18//16 30//16
f 18//17 31//17 30//17
f 18//14 19//14 31//14
f 19//15 32//15 31//15
f 19//16 20//16 32//16
f 20//17 33//17 32//17
f 20//14 21//14 33//14
f 21//15 34//15 33//15
f 21//16 22//16 34//16
f 22//17 35//17 34//17
f 22//14 23//14 35//14
f 23//15 36//15 35//15
f 23//16 24//16 36//16
f 24//17 37//17 36//17
f 24//14 25//14 37//14
f 25//18 38//18 37//18
f 25//19 26//19 38//19
f 26//20 39//20 38//20
f 27//21 28//21 40//21
f 28//22 41//22 40//22
f 28//23 29//23 41//23
f 29//24 42//24 41//24
f 29//25 30//25 42//25
f 30//26 43//26 42//26
f 30//27 31//27 43//27
f 31//28 44//28 43//28
f 31//25 32//25 44//25
f 32//26 45//26 44//26
f 32//27 33//27 45//27
f 33//28 46//28 45//28
f 33//25 34//25 46//25
f 34//26 47//26 46//26
f 34//27 35//27 47//27
f 35//28 48//28 47//28
f 35//25 36//25 48//25
f 36//26 49//26 48//26
f 36//27 37//27 49//27
f 37//28 50//28 49//28
f 37//29 38//29 50//29
f 38//30 51//30 50//30
f 38//31 39//31 51//31
f 39//32 52//32 51//32
f 40//33 41//33 53//33
f 41//34 54//34 53//34
f 41//35 42//35 54//35
f 42//14 55//14 54//14
f 42//36 43//36 55//36
f 43//37 56//37 55//37
f 43//38 44//38 56//38
f 44//14 57//14 56//14
f 44//36 45//36 57//36
f 45//37 58//37 57//37
f 45//38 46//38 58//38
f 46//14 59//14 58//14
f 46//36 47//36 59//36
f 47//37 60//37 59//37
f 47//38 48//38 60//38
f 48//14 61//14 60//14
f 48//36 49//36 61//36
f 49//37 62//37 61//37
f 49//38 50//38 62//38
f 50//14 63//14 62//14
f 50//39 51//39 63//39
f 51//40 64//40 63//40
f 51//41 52//41 64//41
f 52//42 65//42 64//42
f 53//43 54//43 66//43
f 54//44 67//44 66//44
f 54//1 55//1 67//1
f 55//1 68//1 67//1
f 55//45 56//45 68//45
f 56//46 69//46 68//46
f 56//1 57//1 69//1
f 57//1 70//1 69//1
f 57//45 58//45 70//45
f 58//46 71//46 70//46
f 58//1 59//1 71//1
f 59//1 72//1 71//1
f 59//45 60//45 72//45
f 60//46 73//46 72//46
f 60//1 61//1 73//1
f 61//1 74//1 73//1
f 61//45 62//45 74//45
f 62//46 75//46 74//46
f 62//1 63//1 75//1
f 63//1 76//1 75//1
f 63//45 64//45 76//45
f 64//46 77//46 76//46
f 64//1 65//1 77//1
f 65//1 78//1 77//1
f 66//47 67//47 79//47
f 67//48 80//48 79//48
f 67//49 68//49 80//49
f 68//50 81//50 80//50
f 68//51 69//51 81//51
f 69//52 82//52 81//52
f 69//49 70//49 82//49
f 70//50 83//50 82//50
f 70//51 71//51 83//51
f 71//52 84//52 83//52
f 71//49 72//49 84//49
f 72//50 85//50 84//50
f 72//51 73//51 85//51
f 73//52 86//52 85//52
f 73//49 74//49 86//49
f 74//50 87//50 86//50
f 74//51 75//51 87//51
f 75//52 88//52 87//52
f 75//49 76//49 88//49
f 76//50 89//50 88//50
f 76//51 77//51 89//51
f 77//52 90//52 89//52
f 77//53 78//53 90//53
f 78//54 91//54 90//54
f 79//1 80//1 92//1
f 80//1 93//1 92//1
f 80//55 81//55 93//55
f 81//56 94//56 93//56
f 81//1 82//1 94//1
f 82//1 95//1 94//1
f 82//55 83//55 95//55
f 83//56 96//56 95//56
f 83//1 84//1 96//1
f 84//1 97//1 96//1
f 84//55 85//55 97//55
f 85//56 98//56 97//56
f 85//1 86//1 98//1
f 86//1 99//1 98//1
f 86//55 87//55 99//55
f 87//56 100//56 99//56
f 87//1 88//1 100//1
f 88//1 101//1 100//1
f 88//55 89//55 101//55
f 89//56 102//56 101//56
f 89//1 90//1 102//1
f 90//1 103//1 102//1
f 90//57 91//57 103//57
f 91//58 104//58 103//58
f 92//59 93//59 105//59
f 93//60 106//60 105//60
f 93//61 94//61 106//61
f 94//62 107//62 106//62
f 94//14 95//14 107//14
f 95//15 108//15 107//15
f 95//16 96//16 108//16
f 96//17 109//17 108//17
f 96//14 97//14 109//14
f 97//15 110//15 109//15
f 97//16 98//16 110//16
f 98//17 111//17 110//17
f 98//14 99//14 111//14
f 99//15 112//15 111//15
f 99//16 100//16 112//16
f 100//17 113//17 112//17
f 100//14 101//14 113//14
f 101//15 114//15 113//15
f 101//16 102//16 114//16
f 102//17 115//17 114//17
f 102//14 103//14 115//14
f 103//63 116//63 115//63
f 103//64 104//64 116//64
f 104//65 117//65 116//65
f 105//66 106//66 118//66
f 106//67 119//67 118//67
f 106//68 107//68 119//68
f 107//69 120//69 119//69
f 107//25 108//25 120//25
f 108//26 121//26 120//26
f 108//27 109//27 121//27
f 109//28 122//28 121//28
f 109//25 110//25 122//25
f 110//26 123//26 122//26
f 110//27 111//27 123//27
f 111//28 124//28 123//28
f 111//25 112//25 124//25
f 112//26 125//26 124//26
f 112//27 113//27 125//27
f 113//28 126//28 125//28
f 113//25 114//25 126//25
f 114//26 127//26 126//26
f 114//27 115//27 127//27
f 115//28 128//28 127//28
f 115//70 116//70 128//70
f 116//71 129//71 128//71
f 116//72 117//72 129//72
f 117//73 130//73 129//73
f 118//74 119//74 131//74
f 119//75 132//75 131//75
f 119//76 120//76 132//76
f 120//14 133//14 132//14
f 120//36 121//36 133//36
f 121//37 134//37 133//37
f 121//38 122//38 134//38
f 122//14 135//14 134//14
f 122//36 123//36 135//36
f 123//37 136//37 135//37
f 123//38 124//38 136//38
f 124//14 137//14 136//14
f 124//36 125//36 137//36
f 125//37 138//37 137//37
f 125//38 126//38 138//38
f 126//14 139//14 138//14
f 126//36 127//36 139//36
f 127//37 140//37 139//37
f 127//38 128//38 140//38
f 128//14 141//14 140//14
f 128//77 129//77 141//77
f 129//78 142//78 141//78
f 129//79 130//79 142//79
f 130//80 143//80 142//80
f 131//81 132//81 144//81
f 132//82 145//82 144//82
f 132//1 133//1 145//1
f 133//1 146//1 145//1
f 133//83 134//83 146//83
f 134//84 147//84 146//84
f 134//1 135//1 147//1
f 135//1 148//1 147//1
f 135//85 136//85 148//85
f 136//86 149//86 148//86
f 136//1 137//1 149//1
f 137//1 150//1 149//1
f 137//87 138//87 150//87
f 138//88 151//88 150//88
f 138//1 139//1 151//1
f 139//1 152//1 151//1
f 139//89 140//89 152//89
f 140//90 153//90 152//90
f 140//1 141//1 153//1
f 141//1 154//1 153//1
f 141//91 142//91 154//91
f 142//92 155//92 154//92
f 142//1 143//1 155//1
f 143//1 156//1 155//1
f 144//93 145//93 157//93
f 145//94 158//94 157//94
f 145//95 146//95 158//95
f 146//96 159//96 158//96
f 146//97 147//97 159//97
f 147//98 160//98 159//98
f 147//99 148//99 160//99
f 148//100 161//100 160//100
f 148//101 149//101 161//101
f 149//102 162//102 161//102
f 149//103 150//103 162//103
f 150//104 163//104 162//104
f 150//105 151//105 163//105
f 151//106 164//106 163//106
f 151//107 152//107 164//107
f 152//108 165//108 164//108
f 152//109 153//109 165//109
f 153//110 166//110 165//110
f 153//111 154//111 166//111
f 154//112 167//112 166//112
f 154//113 155//113 167//113
f 155//114 168//114 167//114
f 155//115 156//115 168//115
f 156//116 169//116 168//116
