# Blender 3.3.1
# www.blender.org
o Untitled
v -0.067912 -0.076336 -0.007721
v -0.051417 -0.065434 -0.004713
v -0.068068 -0.056133 -0.011694
v -0.056868 -0.042862 -0.021813
v -0.067488 -0.027202 -0.013603
v -0.050514 -0.022110 -0.004713
v -0.061468 -0.010070 -0.017577
v -0.052855 0.007545 -0.024196
v -0.065192 0.022674 -0.016467
v -0.050293 0.027059 -0.004713
v -0.060707 0.038294 -0.018522
v -0.042759 0.046469 -0.021597
v -0.047323 0.062749 -0.032280
v -0.051417 -0.065434 -0.004713
v -0.055643 -0.061317 0.012867
v -0.064759 -0.044700 0.004774
v -0.045302 -0.041418 -0.004713
v -0.050514 -0.022110 -0.004713
v -0.057463 -0.013630 0.009828
v -0.065074 0.001487 -0.000857
v -0.045080 0.007750 -0.004713
v -0.050293 0.027059 -0.004713
v -0.058138 0.036040 0.008734
v -0.063610 0.051770 -0.003150
v -0.044859 0.056918 -0.004713
v -0.048110 0.073546 -0.015463
v -0.031427 -0.066066 -0.004713
v -0.038943 -0.053096 0.014032
v -0.045302 -0.041418 -0.004713
v -0.044578 -0.028784 0.012096
v -0.031205 -0.016897 -0.004713
v -0.041603 -0.003912 0.012777
v -0.045080 0.007750 -0.004713
v -0.046085 0.017790 0.011971
v -0.030984 0.032271 -0.004713
v -0.041916 0.045359 0.012681
v -0.044859 0.056918 -0.004713
v -0.043034 0.066963 0.011488
v -0.045691 0.084328 0.001266
v -0.035144 -0.080664 0.008573
v -0.031427 -0.066066 -0.004713
v -0.026041 -0.046805 -0.004713
v -0.035325 -0.038017 0.018256
v -0.022406 -0.022272 0.016510
v -0.031205 -0.016897 -0.004713
v -0.025819 0.002364 -0.004713
v -0.034612 0.009964 0.017801
v -0.023563 0.026496 0.016239
v -0.030984 0.032271 -0.004713
v -0.025598 0.051532 -0.004713
v -0.022866 0.068891 0.006344
v -0.029280 0.079388 -0.009481
v -0.017731 -0.089247 0.003097
v -0.012166 -0.071452 -0.004713
v -0.024795 -0.059412 0.012071
v -0.026041 -0.046805 -0.004713
v -0.014399 -0.036626 0.011947
v -0.011944 -0.022283 -0.004713
v -0.023428 -0.012497 0.011869
v -0.025819 0.002364 -0.004713
v -0.013894 0.012548 0.011988
v -0.011723 0.026885 -0.004713
v -0.026093 0.041968 0.012494
v -0.025598 0.051532 -0.004713
v -0.028531 0.063008 -0.020837
v -0.012166 -0.071452 -0.004713
v -0.004901 -0.067777 0.016149
v -0.012893 -0.048599 0.016550
v -0.006732 -0.041592 -0.004713
v -0.011944 -0.022283 -0.004713
v -0.002087 -0.014696 0.017622
v -0.015810 0.001111 0.017083
v -0.006510 0.007576 -0.004713
v -0.011723 0.026885 -0.004713
v -0.004614 0.035073 0.017169
v -0.013441 0.053421 0.015899
v -0.006289 0.056744 -0.004713
v -0.008658 0.064657 -0.023038
v 0.007143 -0.066240 -0.004713
v 0.008154 -0.057640 0.012284
v -0.006732 -0.041592 -0.004713
v -0.003471 -0.024788 0.011256
v 0.007365 -0.017071 -0.004713
v 0.005782 -0.002631 0.011788
v -0.006510 0.007576 -0.004713
v -0.002949 0.023862 0.011398
v 0.007586 0.032097 -0.004713
v 0.006924 0.044519 0.011983
v -0.006289 0.056744 -0.004713
v -0.001168 0.074865 0.002191
v -0.000084 0.081587 -0.016634
v 0.002233 -0.083841 0.003425
v 0.007143 -0.066240 -0.004713
v 0.012529 -0.046979 -0.004713
v 0.001203 -0.037795 0.017988
v 0.017973 -0.025014 0.017652
v 0.007365 -0.017071 -0.004713
v 0.012751 0.002190 -0.004713
v 0.001652 0.010848 0.017995
v 0.018788 0.023073 0.017877
v 0.007586 0.032097 -0.004713
v 0.012972 0.051358 -0.004713
v 0.018117 0.069673 0.001462
v 0.019017 0.075751 -0.017601
v 0.021361 -0.089613 0.002443
v 0.026404 -0.071626 -0.004713
v 0.013466 -0.058844 0.012162
v 0.012529 -0.046979 -0.004713
v 0.022743 -0.038855 0.011489
v 0.026626 -0.022457 -0.004713
v 0.014157 -0.010439 0.012137
v 0.012751 0.002190 -0.004713
v 0.022981 0.009577 0.011215
v 0.026847 0.026711 -0.004713
v 0.012474 0.044194 0.012421
v 0.012972 0.051358 -0.004713
v 0.011159 0.058274 -0.023428
v 0.026404 -0.071626 -0.004713
v 0.033165 -0.067809 0.016054
v 0.025483 -0.048218 0.016406
v 0.031838 -0.041766 -0.004713
v 0.026626 -0.022457 -0.004713
v 0.034684 -0.016119 0.017200
v 0.025283 0.001875 0.016231
v 0.032060 0.007402 -0.004713
v 0.026847 0.026711 -0.004713
v 0.032321 0.033408 0.016426
v 0.028111 0.053019 0.015120
v 0.032281 0.056570 -0.004713
v 0.030767 0.062213 -0.023828
v 0.045713 -0.066414 -0.004713
v 0.046452 -0.057851 0.012382
v 0.031838 -0.041766 -0.004713
v 0.042377 -0.028321 0.012724
v 0.045934 -0.017245 -0.004713
v 0.046955 -0.007722 0.012180
v 0.032060 0.007402 -0.004713
v 0.043774 0.020595 0.012381
v 0.046156 0.031923 -0.004713
v 0.047329 0.039160 0.012241
v 0.032281 0.056570 -0.004713
v 0.037792 0.075194 0.000324
v 0.034271 0.081161 -0.018524
v 0.043727 -0.084555 0.003469
v 0.045713 -0.066414 -0.004713
v 0.051099 -0.047152 -0.004713
v 0.057790 -0.038463 0.010249
v 0.065954 -0.023744 -0.000816
v 0.045934 -0.017245 -0.004713
v 0.051321 0.002016 -0.004713
v 0.059684 0.010847 0.008096
v 0.065962 0.025620 -0.004061
v 0.046156 0.031923 -0.004713
v 0.051542 0.051184 -0.004713
v 0.056681 0.070545 -0.005142
v 0.050945 0.071594 -0.024330
v 0.061849 -0.089602 -0.003323
v 0.063816 -0.071476 -0.011544
v 0.069140 -0.052198 -0.011718
v 0.051099 -0.047152 -0.004713
v 0.062251 -0.035307 -0.017348
v 0.053478 -0.017813 -0.024143
v 0.065773 -0.002456 -0.017183
v 0.051321 0.002016 -0.004713
v 0.059604 0.013669 -0.019751
v 0.048543 0.030660 -0.024641
v 0.053897 0.050136 -0.024638
v 0.051542 0.051184 -0.004713
v 0.047126 0.051962 -0.024204
vn -0.0000 -0.0000 1.0000
vn 0.5108 0.8562 -0.0777
vn 0.8762 0.2951 -0.3810
vn 0.8197 -0.5344 0.2063
vn 0.1558 -0.9875 -0.0220
vn 0.6023 0.6508 -0.4623
vn 0.4331 0.1169 -0.8938
vn 0.7523 0.6584 -0.0244
vn 0.9121 0.4019 -0.0811
vn 0.8777 -0.2842 0.3858
vn 0.2795 -0.9548 -0.1015
vn 0.6714 0.6881 -0.2752
vn 0.5827 0.1573 -0.7973
vn 0.7422 0.6701 -0.0146
vn 0.9570 0.2824 -0.0669
vn 0.4056 -0.6480 0.6447
vn 0.2652 -0.8048 0.5310
vn 0.9679 0.2491 -0.0338
vn 0.9860 0.1573 -0.0549
vn 0.0308 0.9748 -0.2209
vn -0.3105 0.7189 -0.6219
vn 0.2239 -0.3247 -0.9189
vn -0.0996 -0.8594 -0.5016
vn 0.9393 0.2536 -0.2311
vn 0.2354 -0.8719 -0.4293
vn -0.2148 0.7956 -0.5666
vn -0.2898 0.6780 -0.6756
vn 0.3938 -0.3900 -0.8324
vn 0.1440 -0.8099 -0.5687
vn 0.9608 0.2594 -0.0982
vn 0.2233 -0.8271 -0.5158
vn -0.2038 0.7550 -0.6232
vn -0.2372 0.6988 -0.6749
vn 0.4420 -0.4378 -0.7830
vn 0.1742 -0.8063 -0.5653
vn 0.9827 0.0861 -0.1641
vn 0.9837 0.0484 -0.1735
vn 0.9407 0.0636 0.3331
vn -0.9407 -0.0636 -0.3331
vn -0.8714 -0.4905 -0.0100
vn -0.0000 -0.0000 -1.0000
vn 0.2169 0.7758 -0.5925
vn 0.7024 0.7117 0.0116
vn -0.2388 -0.6931 -0.6801
vn 0.6735 -0.6004 -0.4313
vn 0.6981 0.7075 -0.1103
vn -0.6981 -0.7075 0.1103
vn -0.8613 -0.4849 -0.1520
vn 0.2346 0.8391 -0.4908
vn 0.5795 0.8135 -0.0483
vn -0.1150 -0.6963 -0.7085
vn 0.7403 -0.5334 -0.4092
vn 0.7213 0.6895 -0.0654
vn -0.7213 -0.6895 0.0654
vn -0.8578 -0.4829 -0.1758
vn 0.2281 0.8158 -0.5315
vn -0.2556 0.5477 -0.7967
vn -0.1644 -0.5190 -0.8388
vn -0.4713 -0.8109 -0.3469
vn -0.4790 -0.5210 -0.7065
vn -0.1041 -0.3722 -0.9223
vn 0.8338 0.4694 0.2907
vn 0.8991 0.3794 0.2182
vn -0.8991 -0.3794 -0.2182
vn -0.7022 0.5225 -0.4837
vn 0.5270 0.5100 -0.6798
vn -0.8244 -0.5262 0.2085
vn -0.2033 -0.7270 -0.6558
vn 0.8314 0.4680 0.2996
vn 0.8953 0.3881 0.2187
vn -0.8953 -0.3881 -0.2187
vn -0.7600 0.4651 -0.4539
vn 0.4879 0.5458 -0.6812
vn -0.7984 -0.5900 0.1202
vn -0.2040 -0.7295 -0.6528
vn 0.8352 0.4702 0.2854
vn 0.9908 -0.1285 -0.0429
vn -0.9908 0.1285 0.0429
vn -0.9393 -0.0666 0.3365
vn -0.9886 -0.1138 0.0989
vn 0.4213 0.8567 -0.2976
vn 0.2490 0.1238 -0.9606
vn 0.6839 -0.5581 -0.4700
vn 0.2533 -0.9382 -0.2358
vn -0.2413 0.8940 -0.3775
vn -0.9065 -0.2447 -0.3442
vn 0.1984 0.8980 -0.3926
vn 0.2744 0.2062 -0.9392
vn 0.8537 -0.3206 -0.4104
vn 0.2567 -0.9510 -0.1725
vn -0.2418 0.8956 -0.3735
vn -0.9115 -0.2460 -0.3297
vn 0.3593 0.8297 -0.4272
vn 0.2250 0.0408 -0.9735
vn 0.6796 -0.6493 -0.3413
vn 0.2601 -0.9634 -0.0651
vn 0.2100 -0.7781 -0.5920
vn 0.0318 -0.9161 -0.3997
vn -0.2598 0.9624 -0.0790
vn -0.6384 0.7014 -0.3169
vn -0.2290 -0.0752 -0.9705
vn -0.4290 -0.8136 -0.3924
vn 0.8733 0.2357 -0.4264
vn 0.2503 -0.9273 -0.2783
vn -0.2549 0.9443 -0.2083
vn -0.8450 0.3596 -0.3958
vn -0.2731 -0.2686 -0.9237
vn -0.2461 -0.8956 -0.3706
vn 0.8714 0.2352 -0.4304
vn 0.2480 -0.9187 -0.3074
vn -0.2512 0.9305 -0.2666
vn -0.6775 0.5770 -0.4562
vn -0.2661 -0.1934 -0.9443
vn -0.4295 -0.8562 -0.2871
vn 0.9593 -0.1922 -0.2070
vn 0.9023 -0.4198 -0.0980
vn 0.9685 -0.2405 0.0641
vn -0.9685 0.2405 -0.0641
vn -0.8346 -0.4699 0.2874
vn 0.1840 0.6581 -0.7301
vn 0.8619 0.4401 0.2520
vn -0.5600 -0.5306 -0.6363
vn 0.5207 -0.6962 -0.4942
vn 0.8734 0.4049 -0.2705
vn -0.8734 -0.4049 0.2705
vn -0.8236 -0.4636 0.3267
vn 0.1873 0.6698 -0.7185
vn 0.8633 0.4350 0.2561
vn -0.5658 -0.5231 -0.6374
vn 0.4929 -0.6959 -0.5224
vn 0.8721 0.4084 -0.2693
vn -0.8721 -0.4084 0.2693
vn -0.8274 -0.4658 0.3138
vn 0.0927 0.3315 -0.9389
vn 0.0468 0.3073 -0.9505
vn -0.2566 -0.9055 -0.3381
vn -0.2924 -0.9070 -0.3030
vn -0.1606 -0.3770 -0.9122
vn -0.0963 -0.3445 -0.9338
vn 0.8354 0.4703 0.2843
vn 0.8644 0.4327 0.2562
vn -0.8644 -0.4327 -0.2562
vn -0.5206 0.6691 -0.5304
vn 0.6067 0.4883 -0.6273
vn -0.8695 -0.4173 0.2643
vn -0.1867 -0.6678 -0.7206
vn 0.8358 0.4705 0.2829
vn 0.8627 0.4366 0.2552
vn -0.8627 -0.4366 -0.2552
vn -0.5015 0.6980 -0.5112
vn 0.6082 0.4952 -0.6203
vn -0.8731 -0.4051 0.2711
vn -0.1810 -0.6474 -0.7404
vn 0.8492 0.4780 0.2246
vn 0.9663 -0.2462 -0.0748
vn -0.9663 0.2462 0.0748
vn -0.9653 0.2587 0.0369
vn -0.9156 0.3402 0.2144
vn 0.4436 0.8447 -0.2997
vn 0.2414 0.1120 -0.9639
vn 0.6757 -0.5848 -0.4488
vn 0.2547 -0.9436 -0.2116
vn -0.2482 0.9196 -0.3046
vn -0.8652 -0.2336 -0.4437
vn 0.3317 0.8666 -0.3727
vn 0.2606 0.0843 -0.9618
vn 0.7328 -0.5137 -0.4462
vn 0.2569 -0.9517 -0.1680
vn -0.2509 0.9296 -0.2700
vn -0.8584 -0.2317 -0.4576
vn 0.4999 0.7800 -0.3765
vn 0.1842 -0.0259 -0.9825
vn 0.5069 -0.8004 -0.3199
vn 0.2588 -0.9588 -0.1172
vn 0.2435 -0.9019 -0.3569
vn 0.1827 -0.9389 -0.2916
vn -0.2595 0.9613 -0.0922
vn -0.6229 0.7099 -0.3287
vn -0.2181 -0.0680 -0.9736
vn -0.4453 -0.8100 -0.3815
vn 0.7596 0.2050 -0.6172
vn 0.2274 -0.8423 -0.4886
vn -0.2563 0.9496 -0.1804
vn -0.6226 0.6972 -0.3554
vn -0.2598 -0.1868 -0.9474
vn -0.4332 -0.8270 -0.3584
vn 0.7310 0.1973 -0.6532
vn 0.2231 -0.8266 -0.5167
vn -0.2535 0.9391 -0.2319
vn -0.4169 0.8460 -0.3323
vn -0.2264 -0.1130 -0.9674
vn -0.5901 -0.7640 -0.2609
vn 0.9585 -0.2436 -0.1479
vn 0.9687 -0.1181 -0.2183
vn 0.9945 -0.1046 0.0094
vn -0.9945 0.1046 -0.0094
vn -0.8384 -0.4720 0.2727
vn 0.1996 0.7139 -0.6712
vn 0.3779 0.7172 -0.5855
vn -0.5238 -0.6666 -0.5303
vn -0.0338 -0.5885 -0.8078
vn 0.3540 0.8054 -0.4754
vn -0.3540 -0.8054 0.4754
vn -0.8277 -0.4660 0.3127
vn 0.1974 0.7060 -0.6801
vn 0.2573 0.7088 -0.6568
vn -0.5444 -0.6623 -0.5148
vn -0.1603 -0.5857 -0.7945
vn 0.2906 0.8726 -0.3926
vn -0.2906 -0.8726 0.3926
vn -0.8413 -0.4736 0.2604
vn 0.0676 0.2418 -0.9680
vn -0.2664 0.0494 -0.9626
vn -0.2964 -0.9251 -0.2375
vn -0.4710 -0.8772 0.0929
vn -0.4113 -0.3370 -0.8470
vn -0.4136 -0.3385 -0.8452
vn -0.3289 0.0920 -0.9399
vn -0.3398 0.0854 -0.9366
vn 0.0395 0.8563 -0.5150
vn -0.0395 -0.8563 0.5150
vn -0.8475 0.5256 0.0738
vn -0.8114 0.5485 -0.2019
vn -0.3510 -0.7286 0.5882
vn -0.8026 -0.5176 -0.2965
vn -0.8997 0.2516 -0.3567
vn -0.3926 0.6215 -0.6779
vn -0.1567 0.8580 -0.4893
vn 0.1567 -0.8580 0.4893
vn -0.8363 0.5135 0.1921
vn -0.8476 0.5274 -0.0583
vn -0.2501 -0.7187 0.6488
vn -0.8279 -0.5573 -0.0639
vn -0.9547 0.2670 -0.1313
vn -0.9564 0.2629 -0.1269
vn -0.9594 0.2519 -0.1266
vn 0.9594 -0.2519 0.1266
vn -0.9234 0.2515 0.2898
vn -0.9563 0.1875 0.2242
s 0
f 1//1 2//1 14//1
f 2//1 15//1 14//1
f 2//2 3//2 15//2
f 3//3 16//3 15//3
f 3//4 4//4 16//4
f 4//5 17//5 16//5
f 4//6 5//6 17//6
f 5//7 18//7 17//7
f 5//1 6//1 18//1
f 6//1 19//1 18//1
f 6//8 7//8 19//8
f 7//9 20//9 19//9
f 7//10 8//10 20//10
f 8//11 21//11 20//11
f 8//12 9//12 21//12
f 9//13 22//13 21//13
f 9//1 10//1 22//1
f 10//1 23//1 22//1
f 10//14 11//14 23//14
f 11//15 24//15 23//15
f 11//16 12//16 24//16
f 12//17 25//17 24//17
f 12//18 13//18 25//18
f 13//19 26//19 25//19
f 14//20 15//20 27//20
f 15//21 28//21 27//21
f 15//22 16//22 28//22
f 16//23 29//23 28//23
f 16//1 17//1 29//1
f 17//1 30//1 29//1
f 17//24 18//24 30//24
f 18//25 31//25 30//25
f 18//26 19//26 31//26
f 19//27 32//27 31//27
f 19//28 20//28 32//28
f 20//29 33//29 32//29
f 20//1 21//1 33//1
f 21//1 34//1 33//1
f 21//30 22//30 34//30
f 22//31 35//31 34//31
f 22//32 23//32 35//32
f 23//33 36//33 35//33
f 23//34 24//34 36//34
f 24//35 37//35 36//35
f 24//1 25//1 37//1
f 25//1 38//1 37//1
f 25//36 26//36 38//36
f 26//37 39//37 38//37
f 27//38 28//38 40//38
f 28//39 41//39 40//39
f 28//40 29//40 41//40
f 29//41 42//41 41//41
f 29//42 30//42 42//42
f 30//43 43//43 42//43
f 30//44 31//44 43//44
f 31//45 44//45 43//45
f 31//46 32//46 44//46
f 32//47 45//47 44//47
f 32//48 33//48 45//48
f 33//41 46//41 45//41
f 33//49 34//49 46//49
f 34//50 47//50 46//50
f 34//51 35//51 47//51
f 35//52 48//52 47//52
f 35//53 36//53 48//53
f 36//54 49//54 48//54
f 36//55 37//55 49//55
f 37//41 50//41 49//41
f 37//56 38//56 50//56
f 38//57 51//57 50//57
f 38//58 39//58 51//58
f 39//59 52//59 51//59
f 40//60 41//60 53//60
f 41//61 54//61 53//61
f 41//41 42//41 54//41
f 42//62 55//62 54//62
f 42//63 43//63 55//63
f 43//64 56//64 55//64
f 43//65 44//65 56//65
f 44//66 57//66 56//66
f 44//67 45//67 57//67
f 45//68 58//68 57//68
f 45//41 46//41 58//41
f 46//69 59//69 58//69
f 46//70 47//70 59//70
f 47//71 60//71 59//71
f 47//72 48//72 60//72
f 48//73 61//73 60//73
f 48//74 49//74 61//74
f 49//75 62//75 61//75
f 49//41 50//41 62//41
f 50//76 63//76 62//76
f 50//77 51//77 63//77
f 51//78 64//78 63//78
f 51//79 52//79 64//79
f 52//80 65//80 64//80
f 53//1 54//1 66//1
f 54//1 67//1 66//1
f 54//81 55//81 67//81
f 55//82 68//82 67//82
f 55//83 56//83 68//83
f 56//84 69//84 68//84
f 56//85 57//85 69//85
f 57//86 70//86 69//86
f 57//1 58//1 70//1
f 58//1 71//1 70//1
f 58//87 59//87 71//87
f 59//88 72//88 71//88
f 59//89 60//89 72//89
f 60//90 73//90 72//90
f 60//91 61//91 73//91
f 61//92 74//92 73//92
f 61//1 62//1 74//1
f 62//1 75//1 74//1
f 62//93 63//93 75//93
f 63//94 76//94 75//94
f 63//95 64//95 76//95
f 64//96 77//96 76//96
f 64//97 65//97 77//97
f 65//98 78//98 77//98
f 66//99 67//99 79//99
f 67//100 80//100 79//100
f 67//101 68//101 80//101
f 68//102 81//102 80//102
f 68//1 69//1 81//1
f 69//1 82//1 81//1
f 69//103 70//103 82//103
f 70//104 83//104 82//104
f 70//105 71//105 83//105
f 71//106 84//106 83//106
f 71//107 72//107 84//107
f 72//108 85//108 84//108
f 72//1 73//1 85//1
f 73//1 86//1 85//1
f 73//109 74//109 86//109
f 74//110 87//110 86//110
f 74//111 75//111 87//111
f 75//112 88//112 87//112
f 75//113 76//113 88//113
f 76//114 89//114 88//114
f 76//1 77//1 89//1
f 77//1 90//1 89//1
f 77//115 78//115 90//115
f 78//116 91//116 90//116
f 79//117 80//117 92//117
f 80//118 93//118 92//118
f 80//119 81//119 93//119
f 81//41 94//41 93//41
f 81//120 82//120 94//120
f 82//121 95//121 94//121
f 82//122 83//122 95//122
f 83//123 96//123 95//123
f 83//124 84//124 96//124
f 84//125 97//125 96//125
f 84//126 85//126 97//126
f 85//41 98//41 97//41
f 85//127 86//127 98//127
f 86//128 99//128 98//128
f 86//129 87//129 99//129
f 87//130 100//130 99//130
f 87//131 88//131 100//131
f 88//132 101//132 100//132
f 88//133 89//133 101//133
f 89//41 102//41 101//41
f 89//134 90//134 102//134
f 90//135 103//135 102//135
f 90//136 91//136 103//136
f 91//137 104//137 103//137
f 92//138 93//138 105//138
f 93//139 106//139 105//139
f 93//41 94//41 106//41
f 94//140 107//140 106//140
f 94//141 95//141 107//141
f 95//142 108//142 107//142
f 95//143 96//143 108//143
f 96//144 109//144 108//144
f 96//145 97//145 109//145
f 97//146 110//146 109//146
f 97//41 98//41 110//41
f 98//147 111//147 110//147
f 98//148 99//148 111//148
f 99//149 112//149 111//149
f 99//150 100//150 112//150
f 100//151 113//151 112//151
f 100//152 101//152 113//152
f 101//153 114//153 113//153
f 101//41 102//41 114//41
f 102//154 115//154 114//154
f 102//155 103//155 115//155
f 103//156 116//156 115//156
f 103//157 104//157 116//157
f 104//158 117//158 116//158
f 105//1 106//1 118//1
f 106//1 119//1 118//1
f 106//159 107//159 119//159
f 107//160 120//160 119//160
f 107//161 108//161 120//161
f 108//162 121//162 120//162
f 108//163 109//163 121//163
f 109//164 122//164 121//164
f 109//1 110//1 122//1
f 110//1 123//1 122//1
f 110//165 111//165 123//165
f 111//166 124//166 123//166
f 111//167 112//167 124//167
f 112//168 125//168 124//168
f 112//169 113//169 125//169
f 113//170 126//170 125//170
f 113//1 114//1 126//1
f 114//1 127//1 126//1
f 114//171 115//171 127//171
f 115//172 128//172 127//172
f 115//173 116//173 128//173
f 116//174 129//174 128//174
f 116//175 117//175 129//175
f 117//176 130//176 129//176
f 118//177 119//177 131//177
f 119//178 132//178 131//178
f 119//179 120//179 132//179
f 120//180 133//180 132//180
f 120//1 121//1 133//1
f 121//1 134//1 133//1
f 121//181 122//181 134//181
f 122//182 135//182 134//182
f 122//183 123//183 135//183
f 123//184 136//184 135//184
f 123//185 124//185 136//185
f 124//186 137//186 136//186
f 124//1 125//1 137//1
f 125//1 138//1 137//1
f 125//187 126//187 138//187
f 126//188 139//188 138//188
f 126//189 127//189 139//189
f 127//190 140//190 139//190
f 127//191 128//191 140//191
f 128//192 141//192 140//192
f 128//1 129//1 141//1
f 129//1 142//1 141//1
f 129//193 130//193 142//193
f 130//194 143//194 142//194
f 131//195 132//195 144//195
f 132//196 145//196 144//196
f 132//197 133//197 145//197
f 133//41 146//41 145//41
f 133//198 134//198 146//198
f 134//199 147//199 146//199
f 134//200 135//200 147//200
f 135//201 148//201 147//201
f 135//202 136//202 148//202
f 136//203 149//203 148//203
f 136//204 137//204 149//204
f 137//41 150//41 149//41
f 137//205 138//205 150//205
f 138//206 151//206 150//206
f 138//207 139//207 151//207
f 139//208 152//208 151//208
f 139//209 140//209 152//209
f 140//210 153//210 152//210
f 140//211 141//211 153//211
f 141//41 154//41 153//41
f 141//212 142//212 154//212
f 142//213 155//213 154//213
f 142//214 143//214 155//214
f 143//215 156//215 155//215
f 144//216 145//216 157//216
f 145//217 158//217 157//217
f 145//218 146//218 158//218
f 146//219 159//219 158//219
f 146//220 147//220 159//220
f 147//221 160//221 159//221
f 147//222 148//222 160//222
f 148//223 161//223 160//223
f 148//224 149//224 161//224
f 149//225 162//225 161//225
f 149//226 150//226 162//226
f 150//227 163//227 162//227
f 150//228 151//228 163//228
f 151//229 164//229 163//229
f 151//230 152//230 164//230
f 152//231 165//231 164//231
f 152//232 153//232 165//232
f 153//233 166//233 165//233
f 153//234 154//234 166//234
f 154//235 167//235 166//235
f 154//236 155//236 167//236
f 155//237 168//237 167//237
f 155//238 156//238 168//238
f 156//239 169//239 168//239
