# Blender 3.3.1
# www.blender.org
o Untitled
v -0.060627 -0.080000 -0.007012
v -0.060633 -0.060000 -0.007012
v -0.060633 -0.060000 -0.007012
v -0.060627 -0.040000 -0.007012
v -0.060627 -0.020000 -0.007012
v -0.060627 -0.020000 -0.007012
v -0.060627 0.000000 -0.007012
v -0.060627 0.020000 -0.007012
v -0.060627 0.020000 -0.007012
v -0.060627 0.040000 -0.007012
v -0.060633 0.060000 -0.007012
v -0.060633 0.060000 -0.007012
v -0.060627 0.080000 -0.007012
v -0.060627 -0.080000 -0.007012
v -0.055086 -0.068790 0.009386
v -0.055086 -0.051210 0.009386
v -0.060627 -0.040000 -0.007012
v -0.055086 -0.028790 0.009387
v -0.055085 -0.011210 0.009387
v -0.060627 0.000000 -0.007012
v -0.055085 0.011210 0.009387
v -0.055086 0.028790 0.009387
v -0.060627 0.040000 -0.007012
v -0.055086 0.051210 0.009386
v -0.055086 0.068790 0.009386
v -0.060627 0.080000 -0.007012
v -0.040627 -0.080000 -0.007012
v -0.040627 -0.060000 -0.007012
v -0.040627 -0.060000 -0.007012
v -0.040627 -0.040000 -0.007012
v -0.040627 -0.020000 -0.007012
v -0.040627 -0.020000 -0.007012
v -0.040627 0.000000 -0.007012
v -0.040627 0.020000 -0.007012
v -0.040627 0.020000 -0.007012
v -0.040627 0.040000 -0.007012
v -0.040627 0.060000 -0.007012
v -0.040627 0.060000 -0.007012
v -0.040627 0.080000 -0.007012
v -0.040627 -0.080000 -0.007012
v -0.035086 -0.068790 0.009387
v -0.035085 -0.051210 0.009387
v -0.040627 -0.040000 -0.007012
v -0.035086 -0.028790 0.009387
v -0.035086 -0.011210 0.009387
v -0.040627 0.000000 -0.007012
v -0.035086 0.011210 0.009387
v -0.035086 0.028790 0.009387
v -0.040627 0.040000 -0.007012
v -0.035085 0.051210 0.009387
v -0.035086 0.068790 0.009387
v -0.040627 0.080000 -0.007012
v -0.020627 -0.080000 -0.007012
v -0.020627 -0.060000 -0.007012
v -0.020627 -0.060000 -0.007012
v -0.020627 -0.040000 -0.007012
v -0.020627 -0.020000 -0.007012
v -0.020627 -0.020000 -0.007012
v -0.020627 0.000000 -0.007012
v -0.020627 0.020000 -0.007012
v -0.020627 0.020000 -0.007012
v -0.020627 0.040000 -0.007012
v -0.020627 0.060000 -0.007012
v -0.020627 0.060000 -0.007012
v -0.020627 0.080000 -0.007012
v -0.020627 -0.080000 -0.007012
v -0.015086 -0.068790 0.009387
v -0.015085 -0.051210 0.009387
v -0.020627 -0.040000 -0.007012
v -0.015086 -0.028790 0.009387
v -0.015086 -0.011210 0.009387
v -0.020627 0.000000 -0.007012
v -0.015086 0.011210 0.009387
v -0.015086 0.028790 0.009387
v -0.020627 0.040000 -0.007012
v -0.015085 0.051210 0.009387
v -0.015086 0.068790 0.009387
v -0.020627 0.080000 -0.007012
v -0.000627 -0.080000 -0.007012
v -0.000627 -0.060000 -0.007012
v -0.000627 -0.060000 -0.007012
v -0.000627 -0.040000 -0.007012
v -0.000627 -0.020000 -0.007012
v -0.000627 -0.020000 -0.007012
v -0.000627 0.000000 -0.007012
v -0.000627 0.020000 -0.007012
v -0.000627 0.020000 -0.007012
v -0.000627 0.040000 -0.007012
v -0.000627 0.060000 -0.007012
v -0.000627 0.060000 -0.007012
v -0.000627 0.080000 -0.007012
v -0.000627 -0.080000 -0.007012
v 0.004914 -0.068790 0.009387
v 0.004914 -0.051210 0.009387
v -0.000627 -0.040000 -0.007012
v 0.004915 -0.028790 0.009387
v 0.004914 -0.011210 0.009387
v -0.000627 0.000000 -0.007012
v 0.004914 0.011210 0.009387
v 0.004915 0.028790 0.009387
v -0.000627 0.040000 -0.007012
v 0.004914 0.051210 0.009387
v 0.004914 0.068790 0.009387
v -0.000627 0.080000 -0.007012
v 0.019373 -0.080000 -0.007012
v 0.019373 -0.060000 -0.007012
v 0.019373 -0.060000 -0.007012
v 0.019373 -0.040000 -0.007012
v 0.019373 -0.020000 -0.007012
v 0.019373 -0.020000 -0.007012
v 0.019373 0.000000 -0.007012
v 0.019373 0.020000 -0.007012
v 0.019373 0.020000 -0.007012
v 0.019373 0.040000 -0.007012
v 0.019373 0.060000 -0.007012
v 0.019373 0.060000 -0.007012
v 0.019373 0.080000 -0.007012
v 0.019373 -0.080000 -0.007012
v 0.024915 -0.068790 0.009387
v 0.024914 -0.051210 0.009387
v 0.019373 -0.040000 -0.007012
v 0.024915 -0.028790 0.009387
v 0.024914 -0.011210 0.009387
v 0.019373 0.000000 -0.007012
v 0.024914 0.011210 0.009387
v 0.024915 0.028790 0.009387
v 0.019373 0.040000 -0.007012
v 0.024914 0.051210 0.009387
v 0.024915 0.068790 0.009387
v 0.019373 0.080000 -0.007012
v 0.039373 -0.080000 -0.007012
v 0.039373 -0.060000 -0.007012
v 0.039373 -0.060000 -0.007012
v 0.039373 -0.040000 -0.007012
v 0.039373 -0.020000 -0.007012
v 0.039373 -0.020000 -0.007012
v 0.039373 0.000000 -0.007012
v 0.039373 0.020000 -0.007012
v 0.039373 0.020000 -0.007012
v 0.039373 0.040000 -0.007012
v 0.039373 0.060000 -0.007012
v 0.039373 0.060000 -0.007012
v 0.039373 0.080000 -0.007012
v 0.039373 -0.080000 -0.007012
v 0.045946 -0.069997 0.009015
v 0.046430 -0.050000 0.008806
v 0.039373 -0.040000 -0.007012
v 0.046454 -0.030000 0.008795
v 0.046666 -0.010000 0.008698
v 0.039373 0.000000 -0.007012
v 0.046666 0.010000 0.008698
v 0.046454 0.030000 0.008795
v 0.039373 0.040000 -0.007012
v 0.046430 0.050000 0.008806
v 0.045946 0.069997 0.009015
v 0.039373 0.080000 -0.007012
v 0.058146 -0.081488 -0.013766
v 0.064553 -0.070505 0.001678
v 0.064560 -0.050543 0.000367
v 0.057632 -0.040027 -0.015174
v 0.064759 -0.030230 0.000739
v 0.064748 -0.010237 0.000152
v 0.057514 0.000000 -0.015433
v 0.064748 0.010237 0.000152
v 0.064759 0.030230 0.000739
v 0.057632 0.040027 -0.015174
v 0.064560 0.050543 0.000367
v 0.064553 0.070505 0.001678
v 0.058146 0.081488 -0.013766
vn -0.0000 -0.0000 1.0000
vn 0.9473 0.0003 -0.3203
vn 0.9473 -0.0000 -0.3204
vn 0.9473 -0.0003 -0.3203
vn 0.9474 -0.0000 -0.3201
vn -0.0000 0.8255 -0.5644
vn -0.7501 -0.0000 -0.6614
vn -0.6869 -0.6869 -0.2375
vn -0.0000 -0.0000 -1.0000
vn -0.0000 0.8255 -0.5643
vn -0.7501 -0.0000 -0.6613
vn -0.6869 -0.6869 -0.2374
vn 0.9474 -0.0000 -0.3202
vn 0.9252 -0.0000 -0.3795
vn 0.9190 -0.0264 -0.3934
vn 0.9132 -0.0000 -0.4074
vn 0.9126 -0.0000 -0.4088
vn 0.9098 -0.0117 -0.4149
vn 0.9070 -0.0000 -0.4211
vn 0.9098 0.0117 -0.4149
vn 0.9190 0.0264 -0.3934
vn -0.1092 0.8628 -0.4937
vn -0.1817 0.8354 -0.5187
vn -0.3668 -0.0008 -0.9303
vn -0.4227 -0.0593 -0.9043
vn -0.2324 -0.8656 -0.4435
vn -0.2156 -0.8507 -0.4795
vn -0.2030 0.8660 -0.4570
vn -0.1882 0.8717 -0.4525
vn -0.4028 -0.0001 -0.9153
vn -0.4275 -0.0268 -0.9036
vn -0.2229 -0.8659 -0.4477
vn -0.2155 -0.8591 -0.4643
vn -0.2105 0.8660 -0.4535
vn -0.2279 0.8590 -0.4584
vn -0.4273 -0.0002 -0.9041
vn -0.4029 0.0271 -0.9148
vn -0.1923 -0.8659 -0.4617
vn -0.1988 -0.8718 -0.4477
vn -0.2051 0.8660 -0.4560
vn -0.2429 0.8502 -0.4670
vn -0.4220 -0.0007 -0.9066
vn -0.3676 0.0608 -0.9280
vn -0.1630 -0.8656 -0.4734
vn -0.1279 -0.8325 -0.5390
s 0
f 1//1 2//1 14//1
f 2//2 15//2 14//2
f 2//1 3//1 15//1
f 3//3 16//3 15//3
f 3//4 4//4 16//4
f 4//1 17//1 16//1
f 4//1 5//1 17//1
f 5//5 18//5 17//5
f 5//1 6//1 18//1
f 6//5 19//5 18//5
f 6//5 7//5 19//5
f 7//1 20//1 19//1
f 7//1 8//1 20//1
f 8//5 21//5 20//5
f 8//1 9//1 21//1
f 9//5 22//5 21//5
f 9//5 10//5 22//5
f 10//1 23//1 22//1
f 10//1 11//1 23//1
f 11//2 24//2 23//2
f 11//1 12//1 24//1
f 12//3 25//3 24//3
f 12//4 13//4 25//4
f 13//1 26//1 25//1
f 14//6 15//6 27//6
f 15//7 28//7 27//7
f 15//7 16//7 28//7
f 16//1 29//1 28//1
f 16//8 17//8 29//8
f 17//9 30//9 29//9
f 17//10 18//10 30//10
f 18//11 31//11 30//11
f 18//11 19//11 31//11
f 19//1 32//1 31//1
f 19//12 20//12 32//12
f 20//9 33//9 32//9
f 20//10 21//10 33//10
f 21//11 34//11 33//11
f 21//11 22//11 34//11
f 22//1 35//1 34//1
f 22//12 23//12 35//12
f 23//9 36//9 35//9
f 23//6 24//6 36//6
f 24//7 37//7 36//7
f 24//7 25//7 37//7
f 25//1 38//1 37//1
f 25//8 26//8 38//8
f 26//9 39//9 38//9
f 27//1 28//1 40//1
f 28//5 41//5 40//5
f 28//1 29//1 41//1
f 29//5 42//5 41//5
f 29//13 30//13 42//13
f 30//1 43//1 42//1
f 30//1 31//1 43//1
f 31//5 44//5 43//5
f 31//1 32//1 44//1
f 32//5 45//5 44//5
f 32//5 33//5 45//5
f 33//1 46//1 45//1
f 33//1 34//1 46//1
f 34//5 47//5 46//5
f 34//1 35//1 47//1
f 35//5 48//5 47//5
f 35//5 36//5 48//5
f 36//1 49//1 48//1
f 36//1 37//1 49//1
f 37//13 50//13 49//13
f 37//1 38//1 50//1
f 38//5 51//5 50//5
f 38//5 39//5 51//5
f 39//1 52//1 51//1
f 40//10 41//10 53//10
f 41//11 54//11 53//11
f 41//11 42//11 54//11
f 42//1 55//1 54//1
f 42//12 43//12 55//12
f 43//9 56//9 55//9
f 43//10 44//10 56//10
f 44//11 57//11 56//11
f 44//11 45//11 57//11
f 45//1 58//1 57//1
f 45//12 46//12 58//12
f 46//9 59//9 58//9
f 46//10 47//10 59//10
f 47//11 60//11 59//11
f 47//11 48//11 60//11
f 48//1 61//1 60//1
f 48//12 49//12 61//12
f 49//9 62//9 61//9
f 49//10 50//10 62//10
f 50//11 63//11 62//11
f 50//11 51//11 63//11
f 51//1 64//1 63//1
f 51//12 52//12 64//12
f 52//9 65//9 64//9
f 53//1 54//1 66//1
f 54//5 67//5 66//5
f 54//1 55//1 67//1
f 55//5 68//5 67//5
f 55//13 56//13 68//13
f 56//1 69//1 68//1
f 56//1 57//1 69//1
f 57//5 70//5 69//5
f 57//1 58//1 70//1
f 58//5 71//5 70//5
f 58//5 59//5 71//5
f 59//1 72//1 71//1
f 59//1 60//1 72//1
f 60//5 73//5 72//5
f 60//1 61//1 73//1
f 61//5 74//5 73//5
f 61//5 62//5 74//5
f 62//1 75//1 74//1
f 62//1 63//1 75//1
f 63//13 76//13 75//13
f 63//1 64//1 76//1
f 64//5 77//5 76//5
f 64//5 65//5 77//5
f 65//1 78//1 77//1
f 66//10 67//10 79//10
f 67//11 80//11 79//11
f 67//11 68//11 80//11
f 68//1 81//1 80//1
f 68//12 69//12 81//12
f 69//9 82//9 81//9
f 69//10 70//10 82//10
f 70//11 83//11 82//11
f 70//11 71//11 83//11
f 71//1 84//1 83//1
f 71//12 72//12 84//12
f 72//9 85//9 84//9
f 72//10 73//10 85//10
f 73//11 86//11 85//11
f 73//11 74//11 86//11
f 74//1 87//1 86//1
f 74//12 75//12 87//12
f 75//9 88//9 87//9
f 75//10 76//10 88//10
f 76//11 89//11 88//11
f 76//11 77//11 89//11
f 77//1 90//1 89//1
f 77//12 78//12 90//12
f 78//9 91//9 90//9
f 79//1 80//1 92//1
f 80//5 93//5 92//5
f 80//1 81//1 93//1
f 81//5 94//5 93//5
f 81//5 82//5 94//5
f 82//1 95//1 94//1
f 82//1 83//1 95//1
f 83//5 96//5 95//5
f 83//1 84//1 96//1
f 84//5 97//5 96//5
f 84//5 85//5 97//5
f 85//1 98//1 97//1
f 85//1 86//1 98//1
f 86//5 99//5 98//5
f 86//1 87//1 99//1
f 87//5 100//5 99//5
f 87//5 88//5 100//5
f 88//1 101//1 100//1
f 88//1 89//1 101//1
f 89//5 102//5 101//5
f 89//1 90//1 102//1
f 90//5 103//5 102//5
f 90//5 91//5 103//5
f 91//1 104//1 103//1
f 92//10 93//10 105//10
f 93//11 106//11 105//11
f 93//11 94//11 106//11
f 94//1 107//1 106//1
f 94//12 95//12 107//12
f 95//9 108//9 107//9
f 95//10 96//10 108//10
f 96//11 109//11 108//11
f 96//11 97//11 109//11
f 97//1 110//1 109//1
f 97//12 98//12 110//12
f 98//9 111//9 110//9
f 98//10 99//10 111//10
f 99//11 112//11 111//11
f 99//11 100//11 112//11
f 100//1 113//1 112//1
f 100//12 101//12 113//12
f 101//9 114//9 113//9
f 101//10 102//10 114//10
f 102//11 115//11 114//11
f 102//11 103//11 115//11
f 103//1 116//1 115//1
f 103//12 104//12 116//12
f 104//9 117//9 116//9
f 105//1 106//1 118//1
f 106//13 119//13 118//13
f 106//1 107//1 119//1
f 107//5 120//5 119//5
f 107//5 108//5 120//5
f 108//1 121//1 120//1
f 108//1 109//1 121//1
f 109//5 122//5 121//5
f 109//1 110//1 122//1
f 110//5 123//5 122//5
f 110//5 111//5 123//5
f 111//1 124//1 123//1
f 111//1 112//1 124//1
f 112//5 125//5 124//5
f 112//1 113//1 125//1
f 113//5 126//5 125//5
f 113//5 114//5 126//5
f 114//1 127//1 126//1
f 114//1 115//1 127//1
f 115//5 128//5 127//5
f 115//1 116//1 128//1
f 116//5 129//5 128//5
f 116//13 117//13 129//13
f 117//1 130//1 129//1
f 118//10 119//10 131//10
f 119//11 132//11 131//11
f 119//11 120//11 132//11
f 120//1 133//1 132//1
f 120//12 121//12 133//12
f 121//9 134//9 133//9
f 121//10 122//10 134//10
f 122//11 135//11 134//11
f 122//11 123//11 135//11
f 123//1 136//1 135//1
f 123//12 124//12 136//12
f 124//9 137//9 136//9
f 124//10 125//10 137//10
f 125//11 138//11 137//11
f 125//11 126//11 138//11
f 126//1 139//1 138//1
f 126//12 127//12 139//12
f 127//9 140//9 139//9
f 127//10 128//10 140//10
f 128//11 141//11 140//11
f 128//11 129//11 141//11
f 129//1 142//1 141//1
f 129//12 130//12 142//12
f 130//9 143//9 142//9
f 131//1 132//1 144//1
f 132//14 145//14 144//14
f 132//1 133//1 145//1
f 133//15 146//15 145//15
f 133//16 134//16 146//16
f 134//1 147//1 146//1
f 134//1 135//1 147//1
f 135//17 148//17 147//17
f 135//1 136//1 148//1
f 136//18 149//18 148//18
f 136//19 137//19 149//19
f 137//1 150//1 149//1
f 137//1 138//1 150//1
f 138//19 151//19 150//19
f 138//1 139//1 151//1
f 139//20 152//20 151//20
f 139//17 140//17 152//17
f 140//1 153//1 152//1
f 140//1 141//1 153//1
f 141//16 154//16 153//16
f 141//1 142//1 154//1
f 142//21 155//21 154//21
f 142//14 143//14 155//14
f 143//1 156//1 155//1
f 144//22 145//22 157//22
f 145//23 158//23 157//23
f 145//24 146//24 158//24
f 146//25 159//25 158//25
f 146//26 147//26 159//26
f 147//27 160//27 159//27
f 147//28 148//28 160//28
f 148//29 161//29 160//29
f 148//30 149//30 161//30
f 149//31 162//31 161//31
f 149//32 150//32 162//32
f 150//33 163//33 162//33
f 150//34 151//34 163//34
f 151//35 164//35 163//35
f 151//36 152//36 164//36
f 152//37 165//37 164//37
f 152//38 153//38 165//38
f 153//39 166//39 165//39
f 153//40 154//40 166//40
f 154//41 167//41 166//41
f 154//42 155//42 167//42
f 155//43 168//43 167//43
f 155//44 156//44 168//44
f 156//45 169//45 168//45
