# Blender 3.3.1
# www.blender.org
mtllib S2_rescaled.mtl
o Untitled
v -0.075880 -0.079669 -0.002483
v -0.056906 -0.079669 -0.008808
v -0.056906 -0.059669 -0.008808
v -0.056906 -0.039669 -0.008808
v -0.056906 -0.019669 -0.008808
v -0.075880 -0.019669 -0.002483
v -0.075880 0.000331 -0.002483
v -0.056906 0.000331 -0.008808
v -0.056906 0.020331 -0.008808
v -0.056906 0.040331 -0.008808
v -0.056906 0.060331 -0.008808
v -0.076906 0.060331 -0.008781
v -0.076906 0.080331 -0.008780
v -0.056906 -0.079669 -0.008808
v -0.056906 -0.059669 -0.008808
v -0.056906 -0.059669 0.011192
v -0.056906 -0.039669 0.011192
v -0.056906 -0.039669 -0.008808
v -0.056906 -0.019669 -0.008808
v -0.056906 0.000331 -0.008808
v -0.056906 0.020331 -0.008808
v -0.056906 0.020331 0.011192
v -0.056906 0.040331 0.011192
v -0.056906 0.040331 -0.008808
v -0.056906 0.060331 -0.008808
v -0.056906 0.080331 -0.008808
v -0.036906 -0.079669 -0.008808
v -0.036906 -0.059669 -0.008808
v -0.036906 -0.059669 0.011192
v -0.036906 -0.039669 0.011192
v -0.036906 -0.039669 -0.008808
v -0.036906 -0.019669 -0.008808
v -0.036906 0.000331 -0.008808
v -0.036906 0.020331 -0.008808
v -0.036906 0.020331 0.011192
v -0.036906 0.040331 0.011192
v -0.036906 0.040331 -0.008808
v -0.036906 0.060331 -0.008808
v -0.036906 0.080331 -0.008808
v -0.036906 -0.079669 0.011192
v -0.036906 -0.079669 -0.008808
v -0.036906 -0.059669 -0.008808
v -0.036906 -0.039669 -0.008808
v -0.036906 -0.019669 -0.008808
v -0.036906 -0.019669 0.011192
v -0.036906 0.000331 0.011192
v -0.036906 0.000331 -0.008808
v -0.036906 0.020331 -0.008808
v -0.036906 0.040331 -0.008808
v -0.036906 0.060331 -0.008808
v -0.036906 0.060331 0.011192
v -0.036906 0.080331 0.011192
v -0.016906 -0.079669 0.011192
v -0.016906 -0.079669 -0.008808
v -0.016906 -0.059669 -0.008808
v -0.016906 -0.039669 -0.008808
v -0.016906 -0.019669 -0.008808
v -0.016906 -0.019669 0.011192
v -0.016906 0.000331 0.011192
v -0.016906 0.000331 -0.008808
v -0.016906 0.020331 -0.008808
v -0.016906 0.040331 -0.008808
v -0.016906 0.060331 -0.008808
v -0.016906 0.060331 0.011192
v -0.016906 0.080331 0.011192
v -0.016906 -0.079669 -0.008808
v -0.016906 -0.059669 -0.008808
v -0.016906 -0.059669 0.011192
v -0.016906 -0.039669 0.011192
v -0.016906 -0.039669 -0.008808
v -0.016906 -0.019669 -0.008808
v -0.016906 0.000331 -0.008808
v -0.016906 0.020331 -0.008808
v -0.016906 0.020331 0.011192
v -0.016906 0.040331 0.011192
v -0.016906 0.040331 -0.008808
v -0.016906 0.060331 -0.008808
v -0.016906 0.080331 -0.008808
v 0.003094 -0.079669 -0.008808
v 0.003094 -0.059669 -0.008808
v 0.003094 -0.059669 0.011192
v 0.003094 -0.039669 0.011192
v 0.003094 -0.039669 -0.008808
v 0.003094 -0.019669 -0.008808
v 0.003094 0.000331 -0.008808
v 0.003094 0.020331 -0.008808
v 0.003094 0.020331 0.011192
v 0.003094 0.040331 0.011192
v 0.003094 0.040331 -0.008808
v 0.003094 0.060331 -0.008808
v 0.003094 0.080331 -0.008808
v 0.003094 -0.079669 0.011192
v 0.003094 -0.079669 -0.008808
v 0.003094 -0.059669 -0.008808
v 0.003094 -0.039669 -0.008808
v 0.003094 -0.019669 -0.008808
v 0.003094 -0.019669 0.011192
v 0.003094 0.000331 0.011192
v 0.003094 0.000331 -0.008808
v 0.003094 0.020331 -0.008808
v 0.003094 0.040331 -0.008808
v 0.003094 0.060331 -0.008808
v 0.003094 0.060331 0.011192
v 0.003094 0.080331 0.011192
v 0.023094 -0.079669 0.011192
v 0.023094 -0.079669 -0.008808
v 0.023094 -0.059669 -0.008808
v 0.023094 -0.039669 -0.008808
v 0.023094 -0.019669 -0.008808
v 0.023094 -0.019669 0.011192
v 0.023094 0.000331 0.011192
v 0.023094 0.000331 -0.008808
v 0.023094 0.020331 -0.008808
v 0.023094 0.040331 -0.008808
v 0.023094 0.060331 -0.008808
v 0.023094 0.060331 0.011192
v 0.023094 0.080331 0.011192
v 0.023094 -0.079669 -0.008808
v 0.023094 -0.059669 -0.008808
v 0.023094 -0.059669 0.011192
v 0.023094 -0.039669 0.011192
v 0.023094 -0.039669 -0.008808
v 0.023094 -0.019669 -0.008808
v 0.023094 0.000331 -0.008808
v 0.023094 0.020331 -0.008808
v 0.023094 0.020331 0.011192
v 0.023094 0.040331 0.011192
v 0.023094 0.040331 -0.008808
v 0.023094 0.060331 -0.008808
v 0.023094 0.080331 -0.008808
v 0.043094 -0.079669 -0.008808
v 0.043094 -0.059669 -0.008808
v 0.043094 -0.059669 0.011192
v 0.043094 -0.039669 0.011192
v 0.043094 -0.039669 -0.008808
v 0.043094 -0.019669 -0.008808
v 0.043094 0.000331 -0.008808
v 0.043094 0.020331 -0.008808
v 0.043094 0.020331 0.011192
v 0.043094 0.040331 0.011192
v 0.043094 0.040331 -0.008808
v 0.043094 0.060331 -0.008808
v 0.043094 0.080331 -0.008808
v 0.045466 -0.079669 0.011051
v 0.043094 -0.079669 -0.008808
v 0.043094 -0.059669 -0.008808
v 0.043094 -0.039669 -0.008808
v 0.043094 -0.019669 -0.008808
v 0.045523 -0.019669 0.011044
v 0.045541 0.000331 0.011042
v 0.043094 0.000331 -0.008808
v 0.043094 0.020331 -0.008808
v 0.043094 0.040331 -0.008808
v 0.043094 0.060331 -0.008808
v 0.045601 0.060331 0.011035
v 0.045591 0.080331 0.011036
v 0.065325 -0.079682 0.008679
v 0.062953 -0.079669 -0.011179
v 0.062950 -0.059669 -0.011200
v 0.062949 -0.039669 -0.011215
v 0.062946 -0.019669 -0.011237
v 0.065375 -0.019688 0.008615
v 0.065391 0.000312 0.008595
v 0.062944 0.000331 -0.011255
v 0.062941 0.020331 -0.011277
v 0.062939 0.040331 -0.011294
v 0.062936 0.060331 -0.011315
v 0.065443 0.060342 0.008527
v 0.065431 0.080342 0.008513
vn -0.0000 -0.0000 1.0000
vn 1.0000 -0.0000 -0.0000
vn -1.0000 -0.0000 -0.0000
vn 0.3162 -0.0000 0.9487
vn -0.3162 -0.0000 -0.9487
vn 0.0013 -0.0000 1.0000
vn -0.0013 -0.0000 -1.0000
vn -0.0013 0.0001 -1.0000
vn -0.0014 -0.0000 -1.0000
vn -0.0000 -0.0000 -1.0000
vn -0.0000 1.0000 -0.0000
vn -0.0000 -1.0000 -0.0000
vn 0.9929 -0.0000 -0.1186
vn -0.9929 -0.0000 0.1186
vn 0.9926 -0.0000 -0.1215
vn 0.9925 -0.0009 -0.1224
vn 0.9925 -0.0000 -0.1224
vn -0.9925 -0.0000 0.1224
vn 0.9921 -0.0000 -0.1254
vn 0.9922 0.0005 -0.1248
vn -0.0007 -1.0000 0.0001
vn -0.0001 -1.0000 -0.0007
vn -0.1186 -0.0000 -0.9929
vn -0.1196 -0.0010 -0.9928
vn -0.1196 -0.0000 -0.9928
vn -0.1204 -0.0008 -0.9927
vn -0.1204 -0.0000 -0.9927
vn -0.1215 -0.0011 -0.9926
vn 0.0010 1.0000 0.0008
vn -0.1215 -0.0000 -0.9926
vn -0.1224 -0.0009 -0.9925
vn -0.0009 -1.0000 0.0001
vn -0.0001 -1.0000 -0.0009
vn -0.1224 -0.0000 -0.9925
vn -0.1235 -0.0011 -0.9923
vn -0.1235 -0.0000 -0.9923
vn -0.1243 -0.0008 -0.9922
vn -0.1243 -0.0000 -0.9922
vn -0.1254 -0.0011 -0.9921
vn -0.0006 1.0000 -0.0005
vn -0.1254 -0.0000 -0.9921
vn -0.1261 -0.0008 -0.9920
s 0
f 1//1 2//1 14//1
f 2//1 15//1 14//1
f 2//1 3//1 15//1
f 3//1 16//1 15//1
f 3//2 4//2 16//2
f 4//2 17//2 16//2
f 4//2 5//2 17//2
f 5//3 18//3 17//3
f 5//4 6//4 18//4
f 6//5 19//5 18//5
f 6//5 7//5 19//5
f 7//5 20//5 19//5
f 7//1 8//1 20//1
f 8//1 21//1 20//1
f 8//1 9//1 21//1
f 9//1 22//1 21//1
f 9//2 10//2 22//2
f 10//2 23//2 22//2
f 10//2 11//2 23//2
f 11//3 24//3 23//3
f 11//6 12//6 24//6
f 12//7 25//7 24//7
f 12//8 13//8 25//8
f 13//9 26//9 25//9
f 14//10 15//10 27//10
f 15//10 28//10 27//10
f 15//11 16//11 28//11
f 16//11 29//11 28//11
f 16//10 17//10 29//10
f 17//10 30//10 29//10
f 17//12 18//12 30//12
f 18//12 31//12 30//12
f 18//10 19//10 31//10
f 19//10 32//10 31//10
f 19//10 20//10 32//10
f 20//10 33//10 32//10
f 20//10 21//10 33//10
f 21//10 34//10 33//10
f 21//11 22//11 34//11
f 22//11 35//11 34//11
f 22//10 23//10 35//10
f 23//10 36//10 35//10
f 23//12 24//12 36//12
f 24//12 37//12 36//12
f 24//10 25//10 37//10
f 25//10 38//10 37//10
f 25//10 26//10 38//10
f 26//10 39//10 38//10
f 27//2 28//2 40//2
f 28//3 41//3 40//3
f 28//2 29//2 41//2
f 29//3 42//3 41//3
f 29//3 30//3 42//3
f 30//3 43//3 42//3
f 30//1 31//1 43//1
f 31//1 44//1 43//1
f 31//1 32//1 44//1
f 32//1 45//1 44//1
f 32//2 33//2 45//2
f 33//2 46//2 45//2
f 33//2 34//2 46//2
f 34//3 47//3 46//3
f 34//2 35//2 47//2
f 35//3 48//3 47//3
f 35//3 36//3 48//3
f 36//3 49//3 48//3
f 36//1 37//1 49//1
f 37//1 50//1 49//1
f 37//1 38//1 50//1
f 38//1 51//1 50//1
f 38//2 39//2 51//2
f 39//2 52//2 51//2
f 40//12 41//12 53//12
f 41//12 54//12 53//12
f 41//10 42//10 54//10
f 42//10 55//10 54//10
f 42//10 43//10 55//10
f 43//10 56//10 55//10
f 43//10 44//10 56//10
f 44//10 57//10 56//10
f 44//11 45//11 57//11
f 45//11 58//11 57//11
f 45//10 46//10 58//10
f 46//10 59//10 58//10
f 46//12 47//12 59//12
f 47//12 60//12 59//12
f 47//10 48//10 60//10
f 48//10 61//10 60//10
f 48//10 49//10 61//10
f 49//10 62//10 61//10
f 49//10 50//10 62//10
f 50//10 63//10 62//10
f 50//11 51//11 63//11
f 51//11 64//11 63//11
f 51//10 52//10 64//10
f 52//10 65//10 64//10
f 53//1 54//1 66//1
f 54//1 67//1 66//1
f 54//1 55//1 67//1
f 55//1 68//1 67//1
f 55//2 56//2 68//2
f 56//2 69//2 68//2
f 56//2 57//2 69//2
f 57//3 70//3 69//3
f 57//2 58//2 70//2
f 58//3 71//3 70//3
f 58//3 59//3 71//3
f 59//3 72//3 71//3
f 59//1 60//1 72//1
f 60//1 73//1 72//1
f 60//1 61//1 73//1
f 61//1 74//1 73//1
f 61//2 62//2 74//2
f 62//2 75//2 74//2
f 62//2 63//2 75//2
f 63//3 76//3 75//3
f 63//2 64//2 76//2
f 64//3 77//3 76//3
f 64//3 65//3 77//3
f 65//3 78//3 77//3
f 66//10 67//10 79//10
f 67//10 80//10 79//10
f 67//11 68//11 80//11
f 68//11 81//11 80//11
f 68//10 69//10 81//10
f 69//10 82//10 81//10
f 69//12 70//12 82//12
f 70//12 83//12 82//12
f 70//10 71//10 83//10
f 71//10 84//10 83//10
f 71//10 72//10 84//10
f 72//10 85//10 84//10
f 72//10 73//10 85//10
f 73//10 86//10 85//10
f 73//11 74//11 86//11
f 74//11 87//11 86//11
f 74//10 75//10 87//10
f 75//10 88//10 87//10
f 75//12 76//12 88//12
f 76//12 89//12 88//12
f 76//10 77//10 89//10
f 77//10 90//10 89//10
f 77//10 78//10 90//10
f 78//10 91//10 90//10
f 79//2 80//2 92//2
f 80//3 93//3 92//3
f 80//2 81//2 93//2
f 81//3 94//3 93//3
f 81//3 82//3 94//3
f 82//3 95//3 94//3
f 82//1 83//1 95//1
f 83//1 96//1 95//1
f 83//1 84//1 96//1
f 84//1 97//1 96//1
f 84//2 85//2 97//2
f 85//2 98//2 97//2
f 85//2 86//2 98//2
f 86//3 99//3 98//3
f 86//2 87//2 99//2
f 87//3 100//3 99//3
f 87//3 88//3 100//3
f 88//3 101//3 100//3
f 88//1 89//1 101//1
f 89//1 102//1 101//1
f 89//1 90//1 102//1
f 90//1 103//1 102//1
f 90//2 91//2 103//2
f 91//2 104//2 103//2
f 92//12 93//12 105//12
f 93//12 106//12 105//12
f 93//10 94//10 106//10
f 94//10 107//10 106//10
f 94//10 95//10 107//10
f 95//10 108//10 107//10
f 95//10 96//10 108//10
f 96//10 109//10 108//10
f 96//11 97//11 109//11
f 97//11 110//11 109//11
f 97//10 98//10 110//10
f 98//10 111//10 110//10
f 98//12 99//12 111//12
f 99//12 112//12 111//12
f 99//10 100//10 112//10
f 100//10 113//10 112//10
f 100//10 101//10 113//10
f 101//10 114//10 113//10
f 101//10 102//10 114//10
f 102//10 115//10 114//10
f 102//11 103//11 115//11
f 103//11 116//11 115//11
f 103//10 104//10 116//10
f 104//10 117//10 116//10
f 105//1 106//1 118//1
f 106//1 119//1 118//1
f 106//1 107//1 119//1
f 107//1 120//1 119//1
f 107//2 108//2 120//2
f 108//2 121//2 120//2
f 108//2 109//2 121//2
f 109//3 122//3 121//3
f 109//2 110//2 122//2
f 110//3 123//3 122//3
f 110//3 111//3 123//3
f 111//3 124//3 123//3
f 111//1 112//1 124//1
f 112//1 125//1 124//1
f 112//1 113//1 125//1
f 113//1 126//1 125//1
f 113//2 114//2 126//2
f 114//2 127//2 126//2
f 114//2 115//2 127//2
f 115//3 128//3 127//3
f 115//2 116//2 128//2
f 116//3 129//3 128//3
f 116//3 117//3 129//3
f 117//3 130//3 129//3
f 118//10 119//10 131//10
f 119//10 132//10 131//10
f 119//11 120//11 132//11
f 120//11 133//11 132//11
f 120//10 121//10 133//10
f 121//10 134//10 133//10
f 121//12 122//12 134//12
f 122//12 135//12 134//12
f 122//10 123//10 135//10
f 123//10 136//10 135//10
f 123//10 124//10 136//10
f 124//10 137//10 136//10
f 124//10 125//10 137//10
f 125//10 138//10 137//10
f 125//11 126//11 138//11
f 126//11 139//11 138//11
f 126//10 127//10 139//10
f 127//10 140//10 139//10
f 127//12 128//12 140//12
f 128//12 141//12 140//12
f 128//10 129//10 141//10
f 129//10 142//10 141//10
f 129//10 130//10 142//10
f 130//10 143//10 142//10
f 131//13 132//13 144//13
f 132//14 145//14 144//14
f 132//2 133//2 145//2
f 133//3 146//3 145//3
f 133//3 134//3 146//3
f 134//3 147//3 146//3
f 134//1 135//1 147//1
f 135//1 148//1 147//1
f 135//1 136//1 148//1
f 136//1 149//1 148//1
f 136//15 137//15 149//15
f 137//16 150//16 149//16
f 137//17 138//17 150//17
f 138//18 151//18 150//18
f 138//2 139//2 151//2
f 139//3 152//3 151//3
f 139//3 140//3 152//3
f 140//3 153//3 152//3
f 140//1 141//1 153//1
f 141//1 154//1 153//1
f 141//1 142//1 154//1
f 142//1 155//1 154//1
f 142//19 143//19 155//19
f 143//20 156//20 155//20
f 144//21 145//21 157//21
f 145//22 158//22 157//22
f 145//23 146//23 158//23
f 146//24 159//24 158//24
f 146//25 147//25 159//25
f 147//26 160//26 159//26
f 147//27 148//27 160//27
f 148//28 161//28 160//28
f 148//11 149//11 161//11
f 149//29 162//29 161//29
f 149//30 150//30 162//30
f 150//31 163//31 162//31
f 150//32 151//32 163//32
f 151//33 164//33 163//33
f 151//34 152//34 164//34
f 152//35 165//35 164//35
f 152//36 153//36 165//36
f 153//37 166//37 165//37
f 153//38 154//38 166//38
f 154//39 167//39 166//39
f 154//11 155//11 167//11
f 155//40 168//40 167//40
f 155//41 156//41 168//41
f 156//42 169//42 168//42
